<svg xmlns="http://www.w3.org/2000/svg" width="48" height="48" viewBox="0 0 48 48"><g fill="none" fill-rule="evenodd"><path fill="#F1F3F5" d="M31.626 12.122l.008 6.814a1.263 1.263 0 0 1-1.26 1.265l-10.879.027a.884.884 0 0 1-.458-1.642l11.631-7.004a.632.632 0 0 1 .958.54zM41.72 32.336l.008 6.814c0 .697-.563 1.263-1.26 1.265l-10.88.027a.884.884 0 0 1-.457-1.642l11.63-7.004a.632.632 0 0 1 .958.54zm-20.211 0l.008 6.814a1.263 1.263 0 0 1-1.26 1.265l-10.879.027A.884.884 0 0 1 8.92 38.8l11.631-7.004a.632.632 0 0 1 .958.54z"/><path stroke="#71D7F7" stroke-width="1.642" d="M18.947 11.242h11.369"/><rect width="12.253" height="9.726" x="18.505" y="9.663" stroke="#A4AFB7" stroke-width="1.642" rx="1.263"/><path stroke="#71D7F7" stroke-width="1.642" d="M8.842 31.453h11.369"/><rect width="12.253" height="9.726" x="8.4" y="29.874" stroke="#A4AFB7" stroke-width="1.642" rx="1.263"/><path stroke="#71D7F7" stroke-width="1.642" d="M29.053 31.453H40.42"/><rect width="12.253" height="9.726" x="28.611" y="29.874" stroke="#A4AFB7" stroke-width="1.642" rx="1.263"/><path stroke="#A4AFB7" stroke-width="1.642" d="M14.526 30.316v-4.421c0-.698.566-1.263 1.263-1.263h17.685c.697 0 1.263.565 1.263 1.263v4.42M24.632 18.947V24"/></g></svg>