<svg xmlns="http://www.w3.org/2000/svg" width="119" height="121" fill="none" viewBox="0 0 119 121"><g clip-path="url(#clip0)"><g fill="#fff" opacity=".4"><path d="M33.092 101.294L28.72 96.17c-.765.234-1.506.41-1.506.41-.766.235-1.106-.943-.34-1.178 0 0 2.36-.678 3.726-1.187 1.453-.542 3.637-1.558 3.637-1.558.732-.322 1.231.745.516 1.113 0 0-.722.369-1.541.725l10.585 13.065-.339-5.147c.03-2.069-.173-3.697-.616-4.888-.64-1.718-1.7-2.676-2.573-3.405-1.132-.882-2.153-1.604-2.58-2.75-.475-1.276.05-2.826 1.416-3.335.06-.023.12-.037.183-.057a14.77 14.77 0 00-10.741-.149c-4.855 1.81-8.197 5.89-9.277 10.59.33-.111.64-.22.901-.317 1.452-.541 3.636-1.558 3.636-1.558.733-.322 1.233.745.516 1.113 0 0-.72.368-1.541.725l10.667 13.165-.356-10.253zM19.829 106.902c2.048 5.499 7.014 9.063 12.488 9.586l-13.393-15.69a14.776 14.776 0 00.905 6.104z"/><path d="M43.22 113.112a1.174 1.174 0 01-.171-.156l-8.63-10.11.344 13.671a14.785 14.785 0 004.135-.897 14.864 14.864 0 004.321-2.508zM43.432 90.512c.224.421.436.882.626 1.394.526 1.41.852 3.093.798 5.371l.326 13.854c3.235-3.95 4.345-9.461 2.435-14.587a14.769 14.769 0 00-4.185-6.032z"/></g><path fill="#D30C5C" d="M111.075 86.321c-.005 0-.01-.003-.012-.008-.001-.006-.007-.01-.013-.008l-23.698 6.35c-.746.2-1.189.97-.988 1.722l6.289 23.469c.2.75.969 1.198 1.716.997.018-.004.036-.01.053-.015.114-.036.225-.081.34-.112l22.686-6.079c.116-.031.236-.048.353-.074.018-.003.035-.008.053-.012.746-.2 1.189-.971.987-1.723l-6.288-23.468a1.408 1.408 0 0 0-1.478-1.039z"/><path fill="#fff" d="M106.877 95.022l-7.13 1.91.646 2.412 7.13-1.91-.646-2.412zM108.14 99.74l-7.13 1.911.647 2.412 7.13-1.91-.647-2.413zM109.404 104.456l-7.13 1.911.647 2.412 7.13-1.91-.647-2.413zM97.528 97.556l-2.412.646 3.168 11.822 2.412-.647-3.168-11.821z"/><path fill="url(#paint0_linear)" d="M33.148 94.297c-.255-.147-.327-.416-.35-.77l1.586-8.06c-2.88-2.686-5.247-5.87-7.026-9.283l-8.162-.622c-.305-.063-.56-.21-.632-.479l-2.472-9.494c-.072-.269.125-.61.308-.731l6.843-4.57c-.08-3.797.376-7.737 1.528-11.503l-5.354-6.273c-.207-.233-.144-.537-.082-.842l4.92-8.522c.147-.255.416-.327.77-.35l8.06 1.586c2.686-2.88 5.87-5.247 9.283-7.026l.622-8.162c.063-.305.21-.56.48-.632l9.493-2.472c.269-.072.61.125.731.308l4.57 6.843c3.797-.08 7.737.376 11.503 1.528l6.273-5.354c.233-.207.537-.144.842-.082l8.522 4.92c.255.148.327.416.35.77l-1.586 8.06c2.88 2.686 5.247 5.87 7.026 9.283l8.162.622c.305.063.56.21.632.48l2.472 9.493c.072.27-.125.61-.308.731l-6.843 4.57c.08 3.797-.376 7.737-1.528 11.503l5.354 6.273c.207.233.144.537.082.842l-4.92 8.522c-.147.255-.416.328-.77.35l-8.06-1.586c-2.686 2.881-5.87 5.247-9.283 7.026l-.622 8.162c-.063.305-.21.56-.479.632l-9.494 2.472c-.269.072-.61-.124-.731-.308l-4.57-6.843c-3.797.08-7.737-.376-11.503-1.528l-6.273 5.354c-.233.207-.537.144-.842.082l-8.522-4.92zm40.34-19.885c8.273-7.835 8.661-20.905.826-29.178s-20.905-8.66-29.227-.74c-8.273 7.835-8.661 20.905-.74 29.227 7.75 8.224 20.868 8.526 29.141.691z"/><path fill="url(#paint1_linear)" d="M53.312 84.23c13.803 3.252 27.673-5.199 30.931-19.008 3.34-13.763-5.229-27.598-18.984-30.931-13.804-3.251-27.674 5.2-30.932 19.009-3.258 13.81 5.182 27.68 18.985 30.93zM39.904 54.656c2.56-10.702 13.3-17.339 23.997-14.784 10.696 2.554 17.325 13.294 14.717 24.078-2.56 10.701-13.3 17.339-24.078 14.736-10.614-2.507-17.196-13.329-14.636-24.03z"/></g><defs><linearGradient id="paint0_linear" x1="0" x2="110.131" y1="75.159" y2="24.93" gradientUnits="userSpaceOnUse"><stop offset=".001" stop-color="#9EFFFF"/><stop offset="1" stop-color="#3D59C9"/></linearGradient><linearGradient id="paint1_linear" x1="55.248" x2="43.746" y1="31.535" y2="89.055" gradientUnits="userSpaceOnUse"><stop offset=".001" stop-color="#4EFEC3"/><stop offset="1" stop-color="#3D59C9"/></linearGradient><clipPath id="clip0"><path fill="#fff" d="M0 0h119v121H0z"/></clipPath></defs></svg>