<svg xmlns="http://www.w3.org/2000/svg" width="105" height="81" fill="none" viewBox="0 0 105 81"><path fill="#fff" d="M71.479 11.87l-31.177 18 11.5 19.918 31.177-18-11.5-19.919z"/><path fill="url(#paint0_linear)" d="M78.448 6.077C76.67 4.24 73.99 3.52 71.623 4.172 67.156 5.32 51.948 14.1 51.948 14.1s-15.297 8.832-18.524 12.127c-1.748 1.724-2.466 4.405-1.763 6.862 1.095 4.378 5.744 12.429 5.744 12.429S42 53.48 45.296 56.707c1.776 1.837 4.406 2.466 6.773 1.815 4.415-1.237 19.713-10.07 19.713-10.07s15.208-8.78 18.486-11.985c1.748-1.724 2.518-4.316 1.815-6.773-1.147-4.466-5.744-12.428-5.744-12.428s-4.648-8.052-7.891-11.19zM61.09 41.504l-8.368-14.492 16.887-.088-8.52 14.58z"/><path fill="#fff" d="M32.211 59.914L11.075 54.25 7.457 67.754l21.136 5.664 3.618-13.504z"/><path fill="url(#paint1_linear)" d="M37.696 60.42c.026-1.554-.818-3.015-2.115-3.752-2.413-1.427-12.723-4.19-12.723-4.19s-10.37-2.778-13.174-2.75c-1.492-.01-2.953.834-3.707 2.192-1.41 2.353-2.873 7.811-2.873 7.811s-1.446 5.398-1.417 8.2c-.027 1.554.833 2.954 2.13 3.692 2.43 1.366 12.8 4.144 12.8 4.144s10.31 2.763 13.098 2.795c1.492.01 2.937-.773 3.69-2.131 1.427-2.413 2.874-7.81 2.874-7.81s1.462-5.46 1.417-8.201zm-22.687 7.766l2.633-9.825 7.295 7.22-9.928 2.605z"/><path fill="#fff" d="M97.632 51.892l-13.797 3.697 2.362 8.814 13.797-3.697-2.362-8.814z"/><path fill="url(#paint2_linear)" d="M100.898 50.387a2.79 2.79 0 0 0-2.42-1.43c-1.83-.02-8.56 1.784-8.56 1.784s-6.77 1.814-8.345 2.745a2.788 2.788 0 0 0-1.38 2.45c-.03 1.79.924 5.352.924 5.352s.944 3.524 1.876 5.099a2.734 2.734 0 0 0 2.41 1.391c1.818-.02 8.588-1.835 8.588-1.835s6.73-1.803 8.316-2.695a2.734 2.734 0 0 0 1.391-2.41c.019-1.829-.925-5.352-.925-5.352s-.955-3.563-1.875-5.099zm-10.29 11.796l-1.72-6.414 6.482 1.7-4.763 4.714z"/><defs><linearGradient id="paint0_linear" x1="26.184" x2="95.092" y1="28.975" y2="34.994" gradientUnits="userSpaceOnUse"><stop stop-color="red"/><stop offset="1" stop-color="#D90000"/></linearGradient><linearGradient id="paint1_linear" x1="5.391" x2="32.421" y1="47.798" y2="80.002" gradientUnits="userSpaceOnUse"><stop stop-color="#FF0202"/><stop offset="1" stop-color="#D70F0F"/></linearGradient><linearGradient id="paint2_linear" x1="78.516" x2="104.307" y1="53.796" y2="63.179" gradientUnits="userSpaceOnUse"><stop stop-color="red"/><stop offset="1" stop-color="#D90000"/></linearGradient></defs></svg>