<svg xmlns="http://www.w3.org/2000/svg" width="48" height="48" viewBox="0 0 48 48"><g fill="none" fill-rule="evenodd"><path fill="#F1F3F5" d="M39.79 7.579v9.596l-5.803.626a2.526 2.526 0 0 0-2.244 2.274l-.97 10.24H13.896L39.789 7.58zm3.615 14.938v11.369a2.526 2.526 0 0 1-2.526 2.526h-9.474l12-13.895z"/><path stroke="#A4AFB7" stroke-linecap="round" stroke-linejoin="round" stroke-width="1.642" d="M39.74 16.748v-6.88c0-1.759-1.392-3.186-3.108-3.186H8.648c-1.717 0-3.11 1.427-3.11 3.185v22.298c0 1.758 1.393 3.185 3.11 3.185H30.03m3.492 6.371H11.757c0-1.758 1.393-3.185 3.11-3.185h15.545M5.538 30.572h24.856m-9.309 7.964V35.35m3.109 3.186V35.35"/><path stroke="#A4AFB7" stroke-linecap="round" stroke-linejoin="round" stroke-width="1.642" d="M40.887 41.7h-6.996c-1.656 0-2.998-1.426-2.998-3.186v-18.05c0-1.76 1.342-3.185 2.998-3.185h6.996c1.656 0 2.999 1.426 2.999 3.185v18.05c0 1.76-1.343 3.186-2.999 3.186h0zm-9.994-20.174h12.993M30.893 36.39h12.993"/><path stroke="#71D7F7" stroke-linecap="round" stroke-linejoin="round" stroke-width="1.642" d="M37.89 39.045c0 .293-.225.531-.5.531-.276 0-.5-.238-.5-.53 0-.294.224-.532.5-.532.275 0 .5.238.5.531h0zm-14.154-6.267c0 .293-.224.531-.5.531-.275 0-.5-.238-.5-.53 0-.294.225-.532.5-.532.276 0 .5.238.5.531h0z"/><path stroke="#A4AFB7" stroke-linecap="round" stroke-linejoin="round" stroke-width="1.642" d="M35.89 19.402h2.999"/><path stroke="#A4AFB7" stroke-width="1.642" d="M30.23 25.705l4.317-9.193v-3.6a.723.723 0 0 0-.722-.723H11.649c-.4 0-.723.324-.723.723v12.07c0 .4.324.723.723.723H30.23z"/><rect width="5.937" height="8.463" x="34.295" y="24.821" stroke="#A4AFB7" stroke-width="1.642" rx="1.544"/></g></svg>