<svg xmlns="http://www.w3.org/2000/svg" width="48" height="48" viewBox="0 0 48 48"><g fill="none" fill-rule="evenodd" transform="translate(5.684 8.842)"><path fill="#F1F3F5" fill-rule="nonzero" d="M13.896 26.43l8.7-10.008.095.082a6.632 6.632 0 1 1-8.795 9.926z"/><path stroke="#A4AFB7" stroke-linecap="round" stroke-linejoin="round" stroke-width="1.642" d="M22.232 4.793a4.547 4.547 0 1 1-9.095 0 4.547 4.547 0 0 1 9.095 0zm10.12 4.547a3.03 3.03 0 1 1-6.063 0 3.03 3.03 0 1 1 6.063 0zm-28.248 0a3.03 3.03 0 1 0 6.064 0 3.032 3.032 0 0 0-6.064 0zM8.77 21.467c0-5.023 4.278-9.095 9.556-9.095s9.556 4.072 9.556 9.095"/><path stroke="#A4AFB7" stroke-linecap="round" stroke-linejoin="round" stroke-width="1.642" d="M26.176 16.278a6.588 6.588 0 0 1 3.299-.874c3.518 0 6.37 2.715 6.37 6.063m-25.37-5.189a6.588 6.588 0 0 0-3.298-.874c-3.518 0-6.37 2.715-6.37 6.063"/><circle cx="18.379" cy="21.789" r="6.632" stroke="#A4AFB7" stroke-width="1.642"/><path stroke="#71D7F7" stroke-linecap="round" stroke-linejoin="round" stroke-width="1.642" d="M15.728 24.68l4.838-5.606m0 5.606l-4.838-5.606"/></g></svg>