<svg xmlns="http://www.w3.org/2000/svg" width="48" height="48" viewBox="0 0 48 48"><title>After X page views Copy</title><g fill="none" fill-rule="evenodd" transform="translate(5.053 7.579)"><path stroke="#A4AFB7" stroke-linecap="round" stroke-linejoin="round" stroke-width="1.642" d="M30.79 3.79c1.744 0 3.157 1.356 3.157 3.031v9.643m-9.779 10.062H7.105c-1.744 0-3.158-1.356-3.158-3.031m21.593 6.063H10.263c-1.745 0-3.158-1.357-3.158-3.032M33.947 6.821c1.745 0 3.158 1.357 3.158 3.032v8.277m-3.158-8.277H30.79m6.315 3.031h-3.158"/><path fill="#F1F3F5" fill-rule="nonzero" d="M31.003 7.098l.093 9.612-4.145 1.533a3.79 3.79 0 0 0-1.674 1.225l-2.735 3.51H1.354l29.649-15.88z"/><path stroke="#A4AFB7" stroke-linecap="round" stroke-linejoin="round" stroke-width="1.642" d="M23.902 23.495H3.947c-1.744 0-3.158-1.357-3.158-3.032V3.79C.79 2.115 2.203.758 3.947.758h23.685c1.744 0 3.157 1.357 3.157 3.031v12.47"/><ellipse cx="31.832" cy="24.373" stroke="#A4AFB7" stroke-width="1.642" rx="7.832" ry="7.963"/><path stroke="#A4AFB7" stroke-linecap="round" stroke-linejoin="round" stroke-width="1.642" d="M.79 6.821h30"/><path fill="#A4AFB7" d="M4.737 3.79c0 .418-.354.757-.79.757-.435 0-.79-.34-.79-.758s.355-.757.79-.757c.436 0 .79.34.79.757m3.158.001c0 .418-.354.757-.79.757-.436 0-.79-.34-.79-.758s.354-.757.79-.757c.436 0 .79.34.79.757m3.158.001c0 .418-.354.757-.79.757-.436 0-.79-.34-.79-.758s.354-.757.79-.757c.436 0 .79.34.79.757"/><path fill="#71D7F7" stroke="#71D7F7" stroke-linecap="round" stroke-linejoin="round" stroke-width=".884" d="M34.098 27.21c0 .27-.05.523-.152.76a1.97 1.97 0 0 1-1.041 1.041 1.9 1.9 0 0 1-.76.153h-.34a1.961 1.961 0 0 1-1.807-1.193 1.906 1.906 0 0 1-.152-.761v-.206l.716-.11v.316c0 .177.034.343.1.497a1.298 1.298 0 0 0 .68.68c.154.066.32.1.497.1h.272a1.235 1.235 0 0 0 .9-.375c.114-.117.205-.252.271-.405.067-.154.1-.32.1-.497v-.66c0-.178-.033-.344-.1-.498a1.288 1.288 0 0 0-.674-.674c-.154-.067-.32-.1-.497-.1h-.533v-.683h.533c.178 0 .343-.033.497-.1a1.288 1.288 0 0 0 .674-.674c.067-.154.1-.32.1-.497v-.389c0-.177-.033-.343-.1-.496a1.288 1.288 0 0 0-.674-.675 1.25 1.25 0 0 0-.497-.1h-.272a1.25 1.25 0 0 0-.497.1 1.322 1.322 0 0 0-.405.272 1.235 1.235 0 0 0-.375.9v.321l-.716-.116v-.206c0-.27.051-.523.153-.76a1.97 1.97 0 0 1 1.044-1.04c.238-.103.493-.154.763-.154h.339c.27 0 .523.051.76.153a1.97 1.97 0 0 1 1.04 1.041c.103.237.153.49.153.76v.272a1.932 1.932 0 0 1-.285 1.022 1.999 1.999 0 0 1-.747.71c.155.082.296.183.422.303a1.999 1.999 0 0 1 .536.882c.05.173.074.353.074.542v.544z"/></g></svg>