<svg xmlns="http://www.w3.org/2000/svg" width="48" height="48" viewBox="0 0 48 48"><g fill="none" fill-rule="evenodd" transform="translate(6.316 6.316)"><path fill="#F1F3F5" d="M34.695 7.579v13.625l-.075 13.528H9.146l-8.084-.131z"/><path stroke="#A4AFB7" stroke-linecap="round" stroke-linejoin="round" stroke-width="1.642" d="M.783 6.535h32.893"/><path fill="#A4AFB7" d="M4.699 3.35a.79.79 0 0 1-.783.796.79.79 0 0 1-.783-.796c0-.44.35-.796.783-.796a.79.79 0 0 1 .783.796m3.133 0a.79.79 0 0 1-.784.796.79.79 0 0 1-.783-.796.79.79 0 0 1 .783-.796.79.79 0 0 1 .784.796m3.132 0a.79.79 0 0 1-.783.796.79.79 0 0 1-.783-.796c0-.44.35-.796.783-.796a.79.79 0 0 1 .783.796"/><path stroke="#A4AFB7" stroke-width="1.642" d="M4.731 11.368h25.332c.14 0 .253.114.253.253v18.442c0 .14-.113.253-.253.253H4.731a.253.253 0 0 1-.252-.253V11.621c0-.14.113-.253.252-.253z"/><g stroke="#71D7F7" stroke-linecap="round" stroke-width="1.642"><path stroke-linejoin="round" d="M24.632 22.67s-3.223 4.08-6.739 4.08c-3.515 0-6.738-4.08-6.738-4.08s3.223-4.08 6.738-4.08c4.102 0 6.739 4.08 6.739 4.08z"/><path stroke-linejoin="round" d="M20.501 21.565c0 1.643-1.24 2.975-2.769 2.975-1.529 0-2.768-1.332-2.768-2.975s1.24-2.975 2.768-2.975c1.53 0 2.77 1.332 2.77 2.975zm-3.746-.015c0-.443.344-1 .688-1"/><path d="M15.862 16.291l.304 2.172m6.359-1.253l-.884 1.734m-2.299-3.148l-.36 2.192m-6.548-.188l1.226 1.778"/></g><rect width="34.358" height="34.712" x=".189" stroke="#A4AFB7" stroke-width="1.642" rx="3.789"/></g></svg>