<svg xmlns="http://www.w3.org/2000/svg" width="48" height="48" viewBox="0 0 48 48"><g fill="none" fill-rule="evenodd"><path fill="#A4AFB7" d="M10.105 10.105a.632.632 0 1 1-1.263 0 .632.632 0 0 1 1.263 0m2.527 0a.632.632 0 1 1-1.264 0 .632.632 0 0 1 1.264 0m2.526 0a.632.632 0 1 1-1.264 0 .632.632 0 0 1 1.264 0"/><path fill="#F1F3F5" d="M37.389 12.632v13.509l-11.283.182.169 12.909H6.695z"/><path stroke="#71D7F7" stroke-linecap="round" stroke-linejoin="round" stroke-width="1.642" d="M37.592 37.592l-7.85-7.85m4.478 0h-4.478v4.478"/><rect width="14.779" height="14.779" x="26.084" y="26.084" stroke="#A4AFB7" stroke-width="1.642" rx="1.544"/><path stroke="#A4AFB7" stroke-linecap="round" stroke-linejoin="round" stroke-width="1.642" d="M25.568 39.158H9.323a3.007 3.007 0 0 1-3.007-3.008V10.586A3.007 3.007 0 0 1 9.323 7.58h25.564a3.007 3.007 0 0 1 3.008 3.007v14.898M6.316 12.632h31.579"/><path stroke="#A4AFB7" stroke-width="1.642" d="M34.295 26.084h-7.769a.442.442 0 0 0-.442.442v9.663H10.99c-.593 0-1.073-.48-1.073-1.073V16.674c0-.593.48-1.074 1.073-1.074h22.232c.593 0 1.074.48 1.074 1.074v9.41z"/></g></svg>