<svg xmlns="http://www.w3.org/2000/svg" width="48" height="48" viewBox="0 0 48 48"><g fill="none" fill-rule="evenodd"><path fill="#F1F3F5" d="M40.547 12.57v16.42a3.79 3.79 0 0 1-3.79 3.79H17.18l23.368-20.21z"/><g transform="translate(3.79 5.053)"><path fill="#A4AFB7" d="M4.737 3.947a.79.79 0 1 1-1.58 0 .79.79 0 0 1 1.58 0m3.158 0a.79.79 0 1 1-1.58 0 .79.79 0 0 1 1.58 0m3.158 0a.79.79 0 1 1-1.58 0 .79.79 0 0 1 1.58 0"/><path stroke="#A4AFB7" stroke-linecap="round" stroke-linejoin="round" stroke-width="1.642" d="M16.579 27.632h17.368a3.157 3.157 0 0 0 3.158-3.158V3.947A3.157 3.157 0 0 0 33.947.79h-30A3.157 3.157 0 0 0 .79 3.947v20.527a3.157 3.157 0 0 0 3.158 3.158H16.58zM.79 7.105h36.315"/><path stroke="#71D7F7" stroke-linecap="round" stroke-linejoin="round" stroke-width="1.642" d="M39.632 37.105H27v-3.158h12.632z"/><path stroke="#A4AFB7" stroke-linecap="round" stroke-linejoin="round" stroke-width="1.642" d="M31.737 30.79L19.105 18.157m6.316.001h-6.316v6.316"/><rect width="14.779" height="8.463" x=".821" y="7.137" stroke="#A4AFB7" stroke-width="1.642" rx="1.544"/></g></g></svg>