<svg xmlns="http://www.w3.org/2000/svg" width="48" height="48" viewBox="0 0 48 48"><g fill="none" fill-rule="evenodd" transform="translate(3.79 6.316)"><path fill="#F1F3F5" d="M33.432 7.579V20.57c-1.987-.18-3.432-.113-4.336.201-.76.264-1.627.872-2.603 1.825a3.79 3.79 0 0 0-.863 1.282c-.818 2.007-1.243 3.535-1.274 4.583-.034 1.166.388 2.835 1.266 5.008H8.842l-7.78-.125 32.37-25.765z"/><path stroke="#A4AFB7" stroke-linecap="round" stroke-linejoin="round" stroke-width="1.642" d="M26.385 34.243H3.915c-1.73 0-3.132-1.426-3.132-3.186V3.982c0-1.76 1.402-3.186 3.133-3.186h26.627c1.73 0 3.133 1.426 3.133 3.186v16.232M.783 7.167h32.893"/><path fill="#A4AFB7" d="M4.699 3.982a.79.79 0 0 1-.783.796.79.79 0 0 1-.783-.796c0-.44.35-.797.783-.797a.79.79 0 0 1 .783.797m3.133 0a.79.79 0 0 1-.784.796.79.79 0 0 1-.783-.796.79.79 0 0 1 .783-.797.79.79 0 0 1 .784.797m3.132 0a.79.79 0 0 1-.783.796.79.79 0 0 1-.783-.796c0-.44.35-.797.783-.797a.79.79 0 0 1 .783.797"/><path stroke="#71D7F7" stroke-linecap="round" stroke-linejoin="round" stroke-width="1.642" d="M34.137 26.87c0 1.28-1.03 2.317-2.3 2.317a2.308 2.308 0 0 1-2.3-2.316 2.308 2.308 0 0 1 2.3-2.317c1.27 0 2.3 1.037 2.3 2.317zm-6.901 7.43c0-2.56 2.06-4.633 4.6-4.633 2.541 0 4.6 2.074 4.6 4.633"/><ellipse cx="31.832" cy="28.174" stroke="#A4AFB7" stroke-width="1.642" rx="7.832" ry="7.963"/><path stroke="#A4AFB7" stroke-width="1.642" d="M30.316 20.36c-3.6.717-6.316 3.943-6.316 7.814 0 .742.1 1.46.287 2.142H4.73a.253.253 0 0 1-.252-.253V11.621c0-.14.113-.253.252-.253h25.332c.14 0 .253.114.253.253v8.739z"/></g></svg>