<svg xmlns="http://www.w3.org/2000/svg" width="102" height="154" viewBox="0 0 102 154" fill="none"><rect x="0.5" y="0.5" width="101" height="153" rx="50.5" stroke="#E7785F"></rect><path d="M21.2613 101.032L43.005 79.5531M70.3862 70.0019L63.8774 89.29C63.7735 89.5992 63.5957 89.879 63.359 90.1058C63.1222 90.3326 62.8336 90.4997 62.5176 90.5928L22.6177 102.307C22.2583 102.413 21.8764 102.419 21.5137 102.325C21.151 102.231 20.8214 102.04 20.5607 101.774C20.2999 101.508 20.1181 101.176 20.0351 100.815C19.952 100.454 19.9708 100.077 20.0894 99.7255L33.0454 61.3383C33.1383 61.0626 33.2901 60.81 33.4905 60.5974C33.6909 60.3849 33.9353 60.2174 34.2071 60.1064L52.6127 52.6206C52.9868 52.468 53.3984 52.4282 53.7955 52.5063C54.1925 52.5843 54.5573 52.7768 54.8437 53.0594L69.8907 67.9263C70.1606 68.1925 70.3499 68.5278 70.4375 68.8944C70.525 69.2611 70.5072 69.6446 70.3862 70.0019V70.0019Z" stroke="#E7785F" stroke-width="1.5" stroke-linecap="round" stroke-linejoin="round"></path><path d="M70.7893 68.8139L80.4517 59.266C81.7327 58.0002 82.4524 56.2836 82.4524 54.4938C82.4524 52.7039 81.7327 50.9873 80.4517 49.7215L73.2083 42.5598C72.5738 41.9327 71.8203 41.4353 70.9911 41.0959C70.1619 40.7565 69.2731 40.5818 68.3755 40.5818C67.4779 40.5818 66.589 40.7565 65.7598 41.0959C64.9306 41.4353 64.1771 41.9327 63.5426 42.5598L53.8802 52.1077M50.2517 72.3914C49.7757 71.9214 49.2106 71.5486 48.5887 71.2943C47.9668 71.04 47.3002 70.9092 46.6272 70.9094C45.9541 70.9095 45.2876 71.0406 44.6658 71.2952C44.044 71.5498 43.4791 71.9228 43.0033 72.3931C42.5275 72.8633 42.15 73.4216 41.8926 74.0359C41.6352 74.6502 41.5028 75.3086 41.5029 75.9735C41.5031 76.6384 41.6358 77.2967 41.8935 77.9109C42.1513 78.5251 42.5289 79.0831 43.005 79.5532C43.9664 80.5024 45.2702 81.0355 46.6296 81.0352C47.9889 81.0349 49.2925 80.5012 50.2534 79.5515C51.2144 78.6018 51.7541 77.3139 51.7538 75.9711C51.7535 74.6283 51.2132 73.3407 50.2517 72.3914Z" stroke="#E7785F" stroke-width="1.5" stroke-linecap="round" stroke-linejoin="round"></path></svg>