<svg xmlns="http://www.w3.org/2000/svg" width="102" height="154" viewBox="0 0 102 154" fill="none"><rect x="0.5" y="0.5" width="101" height="153" rx="50.5" stroke="#E7785F"></rect><path d="M73.8081 63.3388V61.2653C73.8033 59.617 73.1464 58.0376 71.9809 56.8721C70.8154 55.7066 69.236 55.0497 67.5877 55.0449H26.1185C24.4702 55.0497 22.8908 55.7066 21.7253 56.8721C20.5598 58.0376 19.9029 59.617 19.8981 61.2653V94.4407C19.9029 96.089 20.5598 97.6684 21.7253 98.8339C22.8908 99.9994 24.4702 100.656 26.1185 100.661H28.1919" stroke="#E7785F" stroke-width="2" stroke-linejoin="round"></path><path d="M76.1421 65.4124H36.2253C32.9337 65.4124 30.2654 68.0807 30.2654 71.3723V102.995C30.2654 106.287 32.9337 108.955 36.2253 108.955H76.1421C79.4336 108.955 82.102 106.287 82.102 102.995V71.3723C82.102 68.0807 79.4336 65.4124 76.1421 65.4124Z" stroke="#E7785F" stroke-width="2" stroke-linejoin="round"></path><path d="M66.1518 81.2471C68.3541 81.2471 70.1394 79.4746 70.1394 77.2881C70.1394 75.1016 68.3541 73.3291 66.1518 73.3291C63.9496 73.3291 62.1643 75.1016 62.1643 77.2881C62.1643 79.4746 63.9496 81.2471 66.1518 81.2471Z" stroke="#E7785F" stroke-width="2" stroke-miterlimit="10"></path><path d="M62.1643 97.0548L50.8704 85.8593C50.1485 85.146 49.1828 84.7331 48.1682 84.704C47.1537 84.6749 46.1659 85.0318 45.4043 85.7025L30.2654 99.0595M52.1962 108.955L67.5644 93.6983C68.2716 93.0009 69.2121 92.5902 70.2043 92.5454C71.1965 92.5007 72.1702 92.8251 72.9373 93.456L82.102 101.038" stroke="#E7785F" stroke-width="2" stroke-linecap="round" stroke-linejoin="round"></path></svg>