<svg xmlns="http://www.w3.org/2000/svg" width="25" height="25" viewBox="0 0 25 25" fill="none"><path d="M16.6666 2.75H7.66663C6.2747 2.75149 4.9402 3.30509 3.95596 4.28933C2.97172 5.27358 2.41811 6.60807 2.41663 8V17C2.41811 18.3919 2.97172 19.7264 3.95596 20.7107C4.9402 21.6949 6.2747 22.2485 7.66663 22.25H16.6666C18.0586 22.2485 19.393 21.6949 20.3773 20.7107C21.3615 19.7264 21.9151 18.3919 21.9166 17V8C21.9151 6.60807 21.3615 5.27358 20.3773 4.28933C19.393 3.30509 18.0586 2.75149 16.6666 2.75ZM12.1666 17C11.2766 17 10.4066 16.7361 9.66656 16.2416C8.92654 15.7471 8.34976 15.0443 8.00917 14.2221C7.66857 13.3998 7.57946 12.495 7.75309 11.6221C7.92673 10.7492 8.35531 9.94736 8.98465 9.31802C9.61398 8.68868 10.4158 8.2601 11.2887 8.08647C12.1616 7.91283 13.0664 8.00195 13.8887 8.34254C14.711 8.68314 15.4138 9.25991 15.9082 9.99993C16.4027 10.74 16.6666 11.61 16.6666 12.5C16.6654 13.6931 16.1909 14.837 15.3472 15.6806C14.5036 16.5243 13.3597 16.9988 12.1666 17ZM17.7916 8C17.5691 8 17.3516 7.93402 17.1666 7.8104C16.9816 7.68679 16.8374 7.51109 16.7523 7.30552C16.6671 7.09995 16.6448 6.87375 16.6882 6.65552C16.7317 6.43729 16.8388 6.23684 16.9961 6.0795C17.1535 5.92217 17.3539 5.81502 17.5721 5.77162C17.7904 5.72821 18.0166 5.75049 18.2221 5.83564C18.4277 5.92078 18.6034 6.06498 18.727 6.24998C18.8506 6.43499 18.9166 6.6525 18.9166 6.875C18.9166 7.17337 18.7981 7.45952 18.5871 7.6705C18.3761 7.88147 18.09 8 17.7916 8ZM15.1666 12.5C15.1666 13.0933 14.9907 13.6734 14.661 14.1667C14.3314 14.6601 13.8629 15.0446 13.3147 15.2716C12.7665 15.4987 12.1633 15.5581 11.5814 15.4424C10.9994 15.3266 10.4649 15.0409 10.0453 14.6213C9.62575 14.2018 9.34003 13.6672 9.22427 13.0853C9.10851 12.5033 9.16792 11.9001 9.39499 11.3519C9.62205 10.8038 10.0066 10.3352 10.4999 10.0056C10.9933 9.67595 11.5733 9.5 12.1666 9.5C12.9623 9.5 13.7253 9.81607 14.2879 10.3787C14.8506 10.9413 15.1666 11.7044 15.1666 12.5Z" fill="black"></path></svg>