<svg xmlns="http://www.w3.org/2000/svg" viewBox="0 0 48 48"><style>.st0{fill:#f1f3f5}.st1,.st2{fill:none;stroke:#71d7f7;stroke-width:1.64;stroke-linecap:round;stroke-linejoin:round}.st2{stroke:#a4afb7}</style><path d="M27.2 14l2.2.8c.7-.8 1.7-1.2 3-1.3s2.5 1.8 3.7 5.8L33 21.8c2.9-1.5 2.8-1-.3 1.4-1.8 1.4-6.8.6-10 5.2-1 1.4 1.2 8.2-.1 9.3-.6.5-2.6-.5-3.2 0-.4.3-.8-1.1-1.1-4.2l-1.6-.8 2.2-3.8 3.5.8c1.1-1.7 2.1-2.9 2.8-3.6s2-1.7 3.6-2.8c-.5-1.3-.9-2.3-1.3-3s-1.1-1.6-2.1-2.8l1.8-3.5z" class="st0"/><path d="M30.8 34.7l-3 1.7.7-3.4-2.4-2.4 3-.4 1.7-3.1 1.6 3.1 3 .4-2.3 2.4.6 3.4z" class="st1"/><path d="M22.2 32c0-4.7 3.8-8.6 8.6-8.6s8.6 3.8 8.6 8.6-3.8 8.6-8.6 8.6-8.6-3.8-8.6-8.6z" class="st2"/><path d="M22.5 29.8h-.2c-3.6 0-6.6-3-6.6-6.6s3-6.6 6.6-6.6 6.6 3 6.6 6.6v.5c.8-.2 1.9-.3 2.8-.2.7 0 1.1.2 1.6.3v-.1c0-.5-.1-1.4-.1-1.9l3.1-2.4c.3-.2.3-.6.2-.9l-2.9-5c-.2-.3-.6-.4-.9-.3l-3.6 1.5c-.8-.6-1.6-1.1-2.5-1.4L26 9.5c0-.3-.3-.6-.7-.6h-5.8c-.4 0-.7.3-.7.6l-.8 3.6c-.9.4-1.7.9-2.5 1.4L12 13.1c-.3-.1-.7 0-.9.3l-2.9 5c-.2.3-.1.7.2.9l3.1 2.4c-.1.5-.1.9-.1 1.4s0 1 .1 1.4L8.3 27c-.3.2-.3.6-.2.9l2.9 5c.2.3.6.4.9.3l3.6-1.5c.8.6 1.6 1.1 2.5 1.4l.6 3.8c0 .3.3.6.7.6h4.6c-1-1.5-1.7-3.3-1.7-5.3 0-.7 0-1.6.3-2.4z" class="st2"/></svg>