<svg xmlns="http://www.w3.org/2000/svg" width="64" height="64" fill="none" viewBox="0 0 64 64"><g clip-path="url(#clip0_68_4666)"><path fill="#F4D9D3" d="M32 64c17.673 0 32-14.327 32-32C64 14.327 49.673 0 32 0 14.327 0 0 14.327 0 32c0 17.673 14.327 32 32 32z"/><path fill="#7C1D17" d="M30.005 23.568a7.386 7.386 0 01-1.487-4.47c0-1.956.748-3.789 2.11-5.17l.528.528a6.55 6.55 0 00-1.9 4.652 6.63 6.63 0 001.343 4.029l-.594.431zM30.695 24.364a7.355 7.355 0 01-.623-.7l.595-.45c.134.182.316.393.556.623l-.528.527zM31.242 24.854c-.105-.087-.201-.163-.288-.25l.518-.527c.068.067.144.134.23.192l-.46.585z"/><path fill="#7C1D17" d="M33.237 47.156l-.383-.633a11.756 11.756 0 0 0 2.695-2.216 11.45 11.45 0 0 0 2.446-4.134c.442-1.247.662-2.552.662-3.876 0-.143 0-.278-.02-.412a11.895 11.895 0 0 0-.747-3.818l-.02-.077c-.48-1.199-1.093-2.263-1.832-3.165l.221-.317-.288.24c-.029-.038-.067-.076-.086-.115a12.131 12.131 0 0 0-2.561-2.283 11.46 11.46 0 0 0-1.027-.604c-.028-.02-.307-.192-.671-.48-.365-.278-1.065-.863-1.554-1.62 0 .009-.048-.03-.096-.126l.662-.345c.499.739 1.17 1.285 1.439 1.497.336.258.575.421.585.421.336.173.69.394 1.045.614a13.108 13.108 0 0 1 2.773 2.475l.067.087c.029.038.067.076.086.115.777.94 1.439 2.1 1.947 3.395l.03.087c.479 1.295.738 2.628.776 3.952.02.124.02.288.02.47 0 1.41-.24 2.791-.701 4.115a12.065 12.065 0 0 1-2.6 4.403 13 13 0 0 1-2.868 2.35z"/><path fill="#7C1D17" d="M33.986 47.117l-.49-.565a12.736 12.736 0 018.317-3.108c2.926 0 5.774 1.016 8.038 2.858l-.47.576a12.009 12.009 0 00-7.568-2.696 12.056 12.056 0 00-7.827 2.935zM33.17 20.96a3.584 3.584 0 01-3.578-3.579 3.578 3.578 0 013.578-3.578 3.584 3.584 0 013.578 3.578 3.584 3.584 0 01-3.578 3.578zm0-6.408a2.829 2.829 0 100 5.659 2.829 2.829 0 100-5.66z"/><path fill="#7C1D17" d="M33.276 25.151a7.691 7.691 0 0 1-1.9-.23l.183-.72a6.609 6.609 0 0 0 1.707.212 6.939 6.939 0 0 0 6.935-6.936c0-1.064-.259-2.139-.748-3.127l.662-.336a7.737 7.737 0 0 1 .835 3.463c.01 4.23-3.434 7.674-7.674 7.674z"/><path fill="#7C1D17" d="M36.623 28.787l-.172-.73a10.616 10.616 0 0 0 8.105-10.35c0-1.131-.191-2.283-.566-3.414l.71-.24c.403 1.208.605 2.436.605 3.654-.01 5.276-3.578 9.833-8.681 11.08z"/><path fill="#7C1D17" d="M38.072 32.364h-.067v-.748c-.01 0 .01-.01.048-.029 6.053-1.87 10.264-7.443 10.542-13.89.057-1.208-.02-2.33-.23-3.443l.738-.086v.019c.22 1.103.297 2.283.24 3.55-.297 6.762-4.72 12.604-11.012 14.541a.638.638 0 01-.22.077l-.04.01zM39.108 36.192l-.211-.71a18.523 18.523 0 0010.408-7.99l.633.393a19.3 19.3 0 01-10.83 8.307zM38.417 40.652l-.153-.729a22.62 22.62 0 0011.098-5.937l.518.537a23.33 23.33 0 01-11.463 6.13zM35.856 44.93l-.067-.738A26.401 26.401 0 0049.4 38.983l.451.595a27.16 27.16 0 01-13.995 5.352zM49.842 46.465H14.168v.748h35.674v-.748zM31.578 25.228l-.211-.202c-.144-.143-.288-.278-.432-.431-.067-.048-.163-.144-.25-.23l.528-.528c.068.067.144.144.23.211.173.182.308.307.442.441l.21.211-.517.528z"/><path fill="#7C1D17" d="M49.986 50.197H14.014V13.813h35.981v36.384h-.01zm-35.233-.749h34.494V14.552H14.753v34.896z"/><path fill="#7C1D17" d="M30.524 23.03l-.58.457.148.188.58-.456-.148-.189zM36.24 28.806h-.087l.048-.739a4.75 4.75 0 00.662-.105l.192.72c-.077.009-.49.124-.815.124z"/><path fill="#7C1D17" d="M35.866 28.432l.326-.01.163.441-.326-.038-.067-.086-.096-.307zM48.95 14.417c.028-.01.537 0 .537 0l-.326.816-.211-.816z"/></g><defs><clipPath id="clip0_68_4666"><path fill="#fff" d="M0 0h64v64H0z"/></clipPath></defs></svg>