<svg xmlns="http://www.w3.org/2000/svg" width="48" height="48" viewBox="0 0 48 48"><g fill="none" fill-rule="evenodd"><path fill="#F1F3F5" d="M20.275 40.696c.327.405.95.826 1.871 1.265 5.084 2.423 9.736.341 10.896-.8 1.965-1.932 3.24-5.958 3.825-12.077 1.091 7.547.373 12.395-2.153 14.545-1.21 1.03-5.756 2.406-9.396 1.587-1.548-.348-3.228-1.854-5.043-4.52z"/><path stroke="#A4AFB7" stroke-linecap="round" stroke-linejoin="round" stroke-width="1.642" d="M21.535 33.395l-3.25-2.162a3.574 3.574 0 0 0-4.829.825 2.01 2.01 0 0 0 .128 2.569l8.169 8.888a6.068 6.068 0 0 0 4.465 1.959h3.392c4.459 0 8.074-3.606 8.074-8.053v-8.053a2.017 2.017 0 0 0-2.018-2.013 2.017 2.017 0 0 0-2.02 2.013v1.007-3.02a2.017 2.017 0 0 0-2.018-2.013 2.017 2.017 0 0 0-2.018 2.013v3.02-5.033a2.017 2.017 0 0 0-2.02-2.013 2.017 2.017 0 0 0-2.018 2.013v5.033-11.072a2.017 2.017 0 0 0-2.018-2.014 2.017 2.017 0 0 0-2.019 2.014v14.092"/><path stroke="#71D7F7" stroke-linecap="round" stroke-linejoin="round" stroke-width="1.642" d="M29.01 18.884c0-2.965-2.45-5.368-5.473-5.368-3.023 0-5.474 2.403-5.474 5.368"/><path stroke="#A4AFB7" stroke-linecap="round" stroke-linejoin="round" stroke-width="1.642" d="M23.895 2.526v4.027M11.684 18.632H7.58m28.736 0h4.105m-26-8.053l-2.737-4.026m21.895 4.026l2.737-4.026"/></g></svg>