<svg xmlns="http://www.w3.org/2000/svg" id="Layer_1" x="0" y="0" version="1.1" viewBox="0 0 48 48" xml:space="preserve"><style>.st0{fill:#f1f3f5}.st1{fill:none;stroke:#a4afb7;stroke-width:1.6421;stroke-linecap:round;stroke-linejoin:round}.st2{fill-rule:evenodd;clip-rule:evenodd;fill:#a4afb7}.st3{fill:none;stroke:#71d7f7;stroke-width:1.6421;stroke-linecap:round;stroke-linejoin:round}</style><g id="On-Page-Exit-Intent-Copy"><g id="Group-2" transform="translate(5 7)"><path id="Rectangle-Copy-7" d="M36.5 6.9V33H10.2z" class="st0"/><path id="Stroke-14" d="M37.2 30.7c0 1.8-1.4 3.2-3.2 3.2H4c-1.7 0-3.2-1.4-3.2-3.2V3.3C.8 1.5 2.2.1 4 .1h30c1.7 0 3.2 1.4 3.2 3.2v27.4z" class="st1"/><path id="Stroke-16" d="M.8 6.6h36.3" class="st1"/><path id="Fill-18" d="M4.8 3.3c0 .4-.4.8-.8.8s-.8-.3-.8-.8.4-.8.8-.8.8.4.8.8" class="st2"/><path id="Fill-20" d="M7.9 3.3c0 .4-.4.8-.8.8s-.7-.3-.7-.8.4-.8.8-.8.7.4.7.8" class="st2"/><path id="Fill-22" d="M11.1 3.3c0 .4-.4.8-.8.8s-.8-.4-.8-.8.4-.8.8-.8c.5 0 .8.4.8.8" class="st2"/><g id="Group" transform="translate(3 9)"><path id="Stroke-9-Copy-2" d="M1.1 3.1L3.8.4" class="st3"/><path id="Stroke-9-Copy" d="M1.1.5l2.7 2.7" class="st3"/></g><g id="Group-79" transform="translate(11 16)"><path id="Stroke-822" d="M12.7 12.8L.1.2" class="st1"/><path id="Stroke-823" d="M6.4.2H.1v6.3" class="st1"/></g></g></g></svg>