<svg xmlns="http://www.w3.org/2000/svg" width="48" height="48" viewBox="0 0 48 48"><g fill="none" fill-rule="evenodd"><path fill="#F1F3F5" d="M10.105 7.579h6.665v2.499h-6.665zM25.319 42.3c-.518-.989-.607-1.852-.267-2.587.629-1.361 1.546-2.847 2.125-4.653.695-2.163 1.17-4.688 1.424-7.575.306 2.634.414 4.704.321 6.21-.18 2.95-.201 5.248-.686 6.404-.32.764-.44 1.477-.36 2.139l-2.557.063zm-7.715-31.385a56.654 56.654 0 0 1 2.853-.037c1.295.013 2.022-.142 2.982-.424 1.188-.348 1.96-1.115 2.958-1.436 2.163-.694 5.579-1.376 10.249-2.044-5.456-.517-8.938-.73-10.444-.637-1.22.075-2.085 1.197-3.978 1.58-.771.157-2.285.151-4.54-.017l-.08 3.015z"/><path fill="#71D7F7" d="M8.051 11.368l10.14.014.124 7.785-3.588.633c.936-4.096.224-6.12-2.135-6.072-2.36.048-2.996 2.206-1.91 6.474l-2.556.573-.075-9.407z"/><path stroke="#A4AFB7" stroke-linecap="round" stroke-linejoin="round" stroke-width="1.642" d="M7.854 20.053V12.42c0-.842.689-1.526 1.537-1.526h7.69c.848 0 1.537.684 1.537 1.526v6.041m1.538-2.987V17"/><path stroke="#A4AFB7" stroke-linecap="round" stroke-linejoin="round" stroke-width="1.642" d="M6.316 7.842h15.228c1.521-.986 3.368-1.526 5.322-1.526h9.436a2.297 2.297 0 0 1 2.307 2.29 2.297 2.297 0 0 1-2.307 2.289h1.538a2.297 2.297 0 0 1 2.307 2.29 2.297 2.297 0 0 1-2.307 2.289h-.769 2.307a2.297 2.297 0 0 1 2.306 2.29 2.297 2.297 0 0 1-2.306 2.289h-3.845 2.307a2.297 2.297 0 0 1 2.307 2.29 2.297 2.297 0 0 1-2.307 2.289h-5.905 3.598L33.9 26.254c-.399.395-.894.798-1.441 1.174M9.391 10.895V7.842m7.689 3.053V7.842m10.764 33.579v-1.378c.994-1.51 1.538-3.343 1.538-5.283v-7.839a2.297 2.297 0 0 0-2.306-2.29 2.297 2.297 0 0 0-2.307 2.29v-1.526a2.297 2.297 0 0 0-2.307-2.29 2.297 2.297 0 0 0-2.306 2.29v.763-2.29a2.297 2.297 0 0 0-2.307-2.29 2.297 2.297 0 0 0-2.307 2.29v2.29-9.921a2.297 2.297 0 0 0-2.306-2.29 2.297 2.297 0 0 0-2.307 2.29v16.026-6.105l-1.635 1.62c-1.447 1.439-2.966 4.104-2.978 6.011-.012 1.939 1.507 4.645 2.978 6.106.474.44.854.961 1.128 1.53"/><path stroke="#A4AFB7" stroke-linecap="round" stroke-linejoin="round" stroke-width="1.642" d="M27.844 41.421v-1.378c.994-1.51 1.538-3.343 1.538-5.283v-7.839a2.297 2.297 0 0 0-2.306-2.29 2.297 2.297 0 0 0-2.307 2.29v-1.526a2.297 2.297 0 0 0-2.307-2.29 2.297 2.297 0 0 0-2.306 2.29v-1.527a2.297 2.297 0 0 0-2.307-2.29 2.297 2.297 0 0 0-2.307 2.29v-7.631a2.297 2.297 0 0 0-2.306-2.29 2.297 2.297 0 0 0-2.307 2.29v9.92L9.294 27.78c-1.447 1.438-2.966 4.103-2.978 6.01-.012 1.939 1.507 4.645 2.978 6.106.474.44.854.961 1.128 1.53"/></g></svg>