<svg xmlns="http://www.w3.org/2000/svg" width="48" height="48" viewBox="0 0 48 48"><g fill="none" fill-rule="evenodd" transform="translate(12.632 6.316)"><path fill="#71D7F7" d="M11.517 13.186l3.147-2.861a.126.126 0 0 0-.085-.22H8.285a.126.126 0 0 0-.085.22l3.147 2.86a.126.126 0 0 0 .17 0zm-1.064 10.137l.88-.779a.126.126 0 0 1 .166 0l.883.779a.126.126 0 0 1 0 .189l-.882.788a.126.126 0 0 1-.169 0l-.879-.789a.126.126 0 0 1 0-.188zm-.884 2.4l.879-.779a.126.126 0 0 1 .167 0l.882.779a.126.126 0 0 1 .001.189l-.882.788a.126.126 0 0 1-.169 0l-.879-.789a.126.126 0 0 1 0-.188zm2.526-.884l.88-.78a.126.126 0 0 1 .166 0l.883.78a.126.126 0 0 1 0 .188l-.882.789a.126.126 0 0 1-.168 0l-.88-.789a.126.126 0 0 1 0-.188z"/><rect width="21.095" height="2.779" x=".821" y=".821" stroke="#A4AFB7" stroke-width="1.642" rx="1.389"/><rect width="21.095" height="2.779" x=".821" y="31.137" stroke="#A4AFB7" stroke-width="1.642" rx="1.389"/><path stroke="#A4AFB7" stroke-width="1.642" d="M11.368 17.248a175.544 175.544 0 0 0 4.67-4.339c1.685-1.61 5.07-4.46 5.07-6.55 0-.887-.465-1.806-1.397-2.758l-8.343.004-8.555.009c-.91 1.007-1.364 1.905-1.364 2.693 0 2.483 2.462 4.423 4.587 6.183a100.76 100.76 0 0 1 5.332 4.758zm0 .248a175.544 175.544 0 0 1 4.67 4.338c1.685 1.611 5.07 4.46 5.07 6.551 0 .886-.465 1.805-1.397 2.757l-8.343-.004-8.555-.009c-.91-1.007-1.364-1.905-1.364-2.693 0-2.483 2.462-4.423 4.587-6.182a100.76 100.76 0 0 0 5.332-4.758z"/></g></svg>