<svg xmlns="http://www.w3.org/2000/svg" width="48" height="48" viewBox="0 0 48 48"><g fill="none" fill-rule="evenodd"><path fill="#F1F3F5" d="M41.519 13.895V40H15.158z"/><path stroke="#A4AFB7" stroke-linecap="round" stroke-linejoin="round" stroke-width="1.642" d="M42.158 37.665c0 1.777-1.413 3.215-3.158 3.215H9c-1.745 0-3.158-1.438-3.158-3.215v-27.33C5.842 8.558 7.255 7.12 9 7.12h30c1.745 0 3.158 1.438 3.158 3.215v27.33h0zM5.842 13.55h36.316"/><path fill="#A4AFB7" d="M9.79 10.335a.797.797 0 0 1-.79.804.797.797 0 0 1-.79-.804c0-.444.354-.804.79-.804.436 0 .79.36.79.804m3.157 0a.797.797 0 0 1-.79.804.797.797 0 0 1-.789-.804c0-.444.354-.804.79-.804.436 0 .79.36.79.804m3.157 0a.797.797 0 0 1-.79.804.797.797 0 0 1-.789-.804c0-.444.354-.804.79-.804.436 0 .79.36.79.804"/><path stroke="#71D7F7" stroke-linecap="round" stroke-linejoin="round" stroke-width="1.642" d="M16.895 21.589l4.737 4.823-4.737 4.823m7.895-1.608h7.894"/></g></svg>