<svg xmlns="http://www.w3.org/2000/svg" width="48" height="48" viewBox="0 0 48 48"><g fill="none" fill-rule="evenodd"><path fill="#F1F3F5" d="M21.538 33.117c.327.405.95.826 1.871 1.265 5.085 2.423 9.736.341 10.896-.8 1.965-1.932 3.24-5.958 3.826-12.077 1.09 7.547.372 12.395-2.154 14.545-1.21 1.03-5.756 2.406-9.396 1.587-1.547-.348-3.228-1.854-5.043-4.52z"/><g stroke-linecap="round" stroke-linejoin="round" stroke-width="1.642"><path stroke="#A4AFB7" d="M22.798 25.816l-3.25-2.162a3.574 3.574 0 0 0-4.829.825 2.01 2.01 0 0 0 .128 2.569l8.17 8.888a6.068 6.068 0 0 0 4.464 1.959h3.392c4.459 0 8.074-3.606 8.074-8.053V21.79a2.017 2.017 0 0 0-2.018-2.013 2.017 2.017 0 0 0-2.019 2.013v1.007-3.02a2.017 2.017 0 0 0-2.019-2.013 2.017 2.017 0 0 0-2.018 2.013v3.02-5.033a2.017 2.017 0 0 0-2.019-2.013 2.017 2.017 0 0 0-2.019 2.013v5.033-11.072a2.017 2.017 0 0 0-2.018-2.013 2.017 2.017 0 0 0-2.019 2.013v14.092"/><path stroke="#71D7F7" d="M29.73 12.889c.12-.452.207-.92.207-1.41 0-2.973-2.375-5.383-5.305-5.383-2.93 0-5.306 2.41-5.306 5.383 0 .948.263 1.826.688 2.601"/><path stroke="#A4AFB7" d="M12.632 32.348V44.65m3.031-3.076l-3.032 3.076-3.03-3.076m3.031-24.659V4.613m3.031 3.077l-3.032-3.077-3.03 3.076"/></g></g></svg>