<svg xmlns="http://www.w3.org/2000/svg" width="36" height="36" fill="none" viewBox="0 0 36 36"><path fill="#007200" d="M13.5 22.5c.687 0 1.125.333 1.125.563a.562.562 0 1 0 1.125 0c0-.8-.708-1.447-1.688-1.632v-.619a.562.562 0 1 0-1.124 0v.62c-.98.183-1.688.83-1.688 1.63 0 .947.988 1.688 2.25 1.688.687 0 1.125.333 1.125.563 0 .229-.438.562-1.125.562s-1.125-.333-1.125-.563a.562.562 0 1 0-1.125 0c0 .8.708 1.447 1.688 1.632v.619a.562.562 0 1 0 1.124 0v-.62c.98-.183 1.688-.83 1.688-1.63 0-.947-.988-1.688-2.25-1.688-.687 0-1.125-.333-1.125-.563 0-.229.438-.562 1.125-.562z"/><path fill="#007200" d="M13.5 18a6.187 6.187 0 1 0 6.188 6.188A6.195 6.195 0 0 0 13.5 18zm0 11.25a5.062 5.062 0 1 1 0-10.125 5.062 5.062 0 0 1 0 10.125zm14.063-12.375c-.687 0-1.125-.333-1.125-.563a.562.562 0 1 0-1.125 0c0 .8.708 1.447 1.687 1.632v.619a.562.562 0 1 0 1.125 0v-.62c.98-.183 1.688-.83 1.688-1.63 0-.947-.989-1.688-2.25-1.688-.687 0-1.125-.333-1.125-.563 0-.229.438-.562 1.125-.562.686 0 1.125.333 1.125.563a.562.562 0 1 0 1.125 0c0-.8-.709-1.447-1.688-1.632v-.618a.562.562 0 1 0-1.125 0v.618c-.98.184-1.688.831-1.688 1.632 0 .946.989 1.687 2.25 1.687.687 0 1.125.333 1.125.563 0 .229-.438.562-1.125.562z"/><path fill="#007200" d="M34.875 26.437a1.684 1.684 0 0 0-1.248-1.62 1.666 1.666 0 0 0 0-1.26 1.682 1.682 0 0 0-.44-3.307h-2.08a6.183 6.183 0 1 0-9.62-6.21c-.256-.333-.532-.65-.826-.95a10.025 10.025 0 0 0-2.261-1.694 1.66 1.66 0 0 0 .163-.709 1.69 1.69 0 0 0-.675-1.344l2.334-7.487a.559.559 0 0 0-.534-.731 2.88 2.88 0 0 0-1.879.67 1.848 1.848 0 0 1-2.43 0 2.981 2.981 0 0 0-3.763 0 1.84 1.84 0 0 1-2.424 0 2.88 2.88 0 0 0-1.88-.67.558.558 0 0 0-.534.731L9.26 9.798a1.66 1.66 0 0 0-.259.89c.001.156.026.311.073.46a10.074 10.074 0 0 0-5.698 9.102v9.827a.828.828 0 0 1-.46.742l-.71.36a1.95 1.95 0 0 0 .872 3.696h28.986a1.685 1.685 0 0 0 1.564-2.318 1.676 1.676 0 0 0 0-3.24 1.666 1.666 0 0 0 0-1.26 1.685 1.685 0 0 0 1.248-1.62zm-1.687-5.062a.563.563 0 0 1 0 1.125H23.063a.562.562 0 0 1 0-1.125h10.125zm-11.813 2.812a.563.563 0 0 1 .563-.562h10.125a.563.563 0 0 1 0 1.125H21.938a.562.562 0 0 1-.563-.563zm10.688 3.938a.563.563 0 0 1 0 1.125H21.938a.562.562 0 0 1 0-1.125h10.125zm-4.5-18a5.062 5.062 0 1 1-5.063 5.062 5.07 5.07 0 0 1 5.063-5.062zM8.14 2.447c.136.075.266.162.388.258a2.963 2.963 0 0 0 3.752 0 1.856 1.856 0 0 1 2.435 0 2.971 2.971 0 0 0 3.758 0c.123-.096.253-.184.388-.264L16.813 9h-1.406l.878-2.633a.565.565 0 0 0-1.07-.36L14.22 9h-1.423L11.79 5.473a.563.563 0 1 0-1.08.304L11.627 9h-.94c-.16.003-.319.03-.472.078L8.14 2.447zm9.298 8.24a.562.562 0 0 1-.563.563h-6.187a.562.562 0 0 1 0-1.125h6.187a.563.563 0 0 1 .563.562zm2.914 23.063H3.077a.827.827 0 0 1-.365-1.57l.708-.36a1.943 1.943 0 0 0 1.08-1.743V20.25a8.947 8.947 0 0 1 5.237-8.168c.28.191.612.293.95.293h.344l-.315.945a.57.57 0 0 0 .354.714.563.563 0 0 0 .714-.354l.434-1.305h3.004l.55 1.85a.565.565 0 0 0 1.08-.326l-.455-1.524h.478a1.71 1.71 0 0 0 .68-.147 8.815 8.815 0 0 1 2.307 1.66 8.72 8.72 0 0 1 1.575 2.132 6.16 6.16 0 0 0 2.582 4.23h-.956a1.685 1.685 0 0 0-1.564 2.317 1.675 1.675 0 0 0 0 3.24 1.666 1.666 0 0 0 0 1.26 1.675 1.675 0 0 0 0 3.24 1.666 1.666 0 0 0 0 1.26 1.662 1.662 0 0 0-1.147 2.183zm11.71 0H21.939a.562.562 0 0 1 0-1.125h10.125a.563.563 0 0 1 0 1.125zm1.688-2.813a.562.562 0 0 1-.562.563H23.063a.562.562 0 0 1 0-1.125h10.125a.563.563 0 0 1 .562.562zM33.188 27H23.063a.562.562 0 0 1 0-1.125h10.125a.563.563 0 0 1 0 1.125z"/></svg>