<svg xmlns="http://www.w3.org/2000/svg" width="36" height="36" fill="none" viewBox="0 0 36 36"><path fill="#007200" d="M17.72 7.167a7.312 7.312 0 1 0 9.989 2.676 7.321 7.321 0 0 0-9.99-2.676zm9.014 3.239a6.188 6.188 0 1 1-11.537 3.006l2.383 2.227a1.688 1.688 0 1 0 3.006-.157l2.506-3.202c.171.06.352.093.534.095a1.687 1.687 0 1 0-1.688-1.688c.001.32.094.632.267.9l-2.47 3.154a1.623 1.623 0 0 0-1.383.078l-2.982-2.786a6.182 6.182 0 0 1 11.363-1.631l.001.004zm-7.046 5.906a.563.563 0 1 1-1.125 0 .563.563 0 0 1 1.125 0zm3.375-5.625a.562.562 0 1 1 1.125 0 .562.562 0 0 1-1.125 0z"/><path fill="#007200" d="M34.169 30.038l-3.89-6.74a.562.562 0 0 0-.768-.206l-.487.281-1.486-2.572A9.546 9.546 0 0 0 27 5.77V1.688a.563.563 0 0 0-.563-.563H7.313a.563.563 0 0 0-.397.165L1.29 6.915a.563.563 0 0 0-.165.397v27a.562.562 0 0 0 .563.563h24.75a.562.562 0 0 0 .562-.563v-5.444l2.297 3.982a2.815 2.815 0 0 0 3.851 1.046 2.813 2.813 0 0 0 1.02-3.858zm-6.12-6.102l-.974.562-1.415-2.451c.169-.084.333-.17.496-.265.163-.096.316-.203.473-.306l1.42 2.46zm.633-14.655a8.464 8.464 0 1 1-14.65 8.484 8.464 8.464 0 0 1 14.65-8.484zM6.75 3.045V6.75H3.045L6.75 3.045zM25.875 33.75H2.25V7.875h5.063a.563.563 0 0 0 .562-.563V2.25h18v2.82a9.604 9.604 0 0 0-2.025-.807 9.534 9.534 0 0 0-11.162 5.27l-.454-.424a1.687 1.687 0 1 0-2.819.425l-2.93 5.119a1.688 1.688 0 1 0 1.39 1.66 1.672 1.672 0 0 0-.415-1.097l2.93-5.119c.098.018.198.027.297.028.27-.002.537-.07.775-.197l.795.74A9.537 9.537 0 0 0 18.9 22.737a9.447 9.447 0 0 0 5.719-.243L26.1 25.06l-.487.281a.562.562 0 0 0-.205.769l.467.808v6.831zM10.125 8.437a.563.563 0 1 1 1.125 0 .563.563 0 0 1-1.125 0zM6.75 16.314a.562.562 0 1 1-1.125 0 .562.562 0 0 1 1.125 0zm26.613 15.564a1.688 1.688 0 0 1-3.094.408l-3.606-6.25 2.924-1.687 3.607 6.252a1.68 1.68 0 0 1 .169 1.277z"/><path fill="#007200" d="M23.063 31.5H22.5v-5.063a.562.562 0 0 0-.563-.562h-2.25a.562.562 0 0 0-.562.563V31.5H18v-7.313a.562.562 0 0 0-.563-.562h-2.25a.562.562 0 0 0-.562.563V31.5H13.5v-5.063a.562.562 0 0 0-.563-.562h-2.25a.562.562 0 0 0-.562.563V31.5H9v-2.813a.562.562 0 0 0-.563-.562h-2.25a.563.563 0 0 0-.562.563V31.5h-.563a.563.563 0 0 0 0 1.125h18a.562.562 0 1 0 0-1.125zm-16.313 0v-2.25h1.125v2.25H6.75zm4.5 0V27h1.125v4.5H11.25zm4.5 0v-6.75h1.125v6.75H15.75zm4.5 0V27h1.125v4.5H20.25zM4.5 21.375h6.75a.562.562 0 1 0 0-1.125H4.5a.563.563 0 0 0 0 1.125zm6.75 2.25a.562.562 0 1 0 0-1.125H4.5a.563.563 0 0 0 0 1.125h6.75z"/></svg>