<svg xmlns="http://www.w3.org/2000/svg" width="37" height="36" fill="none" viewBox="0 0 37 36"><g fill="#007200" clip-path="url(#clip0_985_3395)"><path d="M32.056 11.767H29.46V6.66c0-.874-.348-1.689-.917-2.285L26.867 2.62C25.444 1.154 25.264.74 24.417.33A3.316 3.316 0 0 0 22.98 0H10.733a3.312 3.312 0 0 0-3.308 3.308V21.15h-.698a1.91 1.91 0 0 0-1.908 1.909c0 .524.212.998.554 1.343-.342.345-.554.82-.554 1.343 0 .197.027.313.037.378-4.142.421-5.792 5.547-2.76 8.33a4.78 4.78 0 0 0 3.448 1.263l9.412-.003a1.911 1.911 0 0 0 1.908-1.91c0-.523-.212-.997-.554-1.342.322-.325.528-.762.551-1.249h.716v.383A4.41 4.41 0 0 0 21.985 36h10.072a4.411 4.411 0 0 0 4.406-4.406v-15.42a4.411 4.411 0 0 0-4.406-4.407zm-4.503-6.79l.002.001.003.004h.001a.012.012 0 0 0 .004.004l.002.003.002.002.002.002.003.003h-2.834V2l2.815 2.977zM6.727 22.28h8.229a.779.779 0 0 1 0 1.555H6.727a.778.778 0 0 1 0-1.555zm0 2.687h8.229a.779.779 0 0 1 0 1.555H9.272a4.772 4.772 0 0 0-2.18-.422H6.037a.779.779 0 0 1 .69-1.133zm9.006 3.463c0 .43-.35.778-.777.778H11.79a4.756 4.756 0 0 0-.96-1.555h4.125c.428 0 .777.349.777.777zM3.976 27.415a4.88 4.88 0 0 0-.89 1.143h-.66c.43-.534.966-.914 1.55-1.143zm-2.151 2.203h.823c-.018.08-.111.384-.154.848h-.87c.034-.292.101-.576.2-.848zm.09 2.803a3.715 3.715 0 0 1-.265-.895h.864c.155.878.163.727.202.895h-.8zm.706 1.06c.347 0 .549.002.596-.001.212.334.466.642.761.92a3.736 3.736 0 0 1-1.357-.919zm4.826 1.175a3.748 3.748 0 0 1-3.909-3.588c-.142-3.302 3.802-5.204 6.285-2.924 2.448 2.247.958 6.374-2.376 6.512zm7.509-.075H10.39a4.86 4.86 0 0 0 1.215-1.556h3.35a.779.779 0 0 1 0 1.555zm.77-3.37a.778.778 0 0 1-.77.683h-2.96c.103-.49.132-1.02.069-1.555h2.89c.477 0 .833.426.772.872zm1.851-1.13h-1.02a1.885 1.885 0 0 0-.247-.308 1.904 1.904 0 0 0 0-2.686 1.901 1.901 0 0 0 0-2.686c1.189-1.199.34-3.252-1.354-3.252h-6.4V3.31a2.18 2.18 0 0 1 2.177-2.178h12.874v4.43c0 .313.253.566.565.566h4.09c.118.458.046.307.067 5.64h-6.345a4.411 4.411 0 0 0-4.407 4.406V30.08zm17.824 1.513a3.35 3.35 0 0 1-3.345 3.346H21.984a3.35 3.35 0 0 1-3.346-3.346v-15.42a3.35 3.35 0 0 1 3.346-3.346h10.072a3.35 3.35 0 0 1 3.346 3.345v15.42z"/><path d="M32.018 14.03h-9.997a1.78 1.78 0 0 0-1.78 1.78v1.94c0 .983.797 1.78 1.78 1.78h1.924a.53.53 0 0 0 0-1.06H22.02a.722.722 0 0 1-.72-.72v-1.94c0-.396.324-.72.72-.72h9.997a.72.72 0 0 1 .72.72v1.94a.72.72 0 0 1-.72.72H26.23a.53.53 0 0 0 0 1.06h5.787c.982 0 1.78-.799 1.78-1.78v-1.94c0-.981-.798-1.78-1.78-1.78zm-8.855 11.172H21.35c-.611 0-1.11.497-1.11 1.11v1.81c0 .613.499 1.11 1.11 1.11h1.812a1.11 1.11 0 0 0 1.11-1.11v-1.81a1.11 1.11 0 0 0-1.11-1.11zm.05 2.92a.05.05 0 0 1-.05.05H21.35a.05.05 0 0 1-.05-.05v-1.81a.05.05 0 0 1 .05-.05h1.812a.05.05 0 0 1 .05.05v1.81zm9.533-7.656h-1.811a1.11 1.11 0 0 0-1.11 1.11v1.81c0 .613.498 1.11 1.11 1.11h1.811a1.11 1.11 0 0 0 1.11-1.11v-1.81a1.11 1.11 0 0 0-1.11-1.11zm.05 2.92a.05.05 0 0 1-.05.05h-1.811a.05.05 0 0 1-.05-.05c.022-1.791-.046-1.86.05-1.86h1.811a.05.05 0 0 1 .05.05v1.81zm-9.633-2.92H21.35c-.611 0-1.11.497-1.11 1.11v1.81c0 .613.499 1.11 1.11 1.11h1.812a1.11 1.11 0 0 0 1.11-1.11v-1.81a1.11 1.11 0 0 0-1.11-1.11zm.05 2.92a.05.05 0 0 1-.05.05H21.35a.05.05 0 0 1-.05-.05v-1.81a.05.05 0 0 1 .05-.05h1.812a.05.05 0 0 1 .05.05v1.81zm.78 6.694a1.11 1.11 0 0 0-.83-.374H21.35c-.33 0-.627.145-.83.374-.385.432-.254.903-.28 1.131v1.416c0 .612.498 1.11 1.11 1.11h1.812a1.11 1.11 0 0 0 1.11-1.11v-1.416c-.026-.223.104-.7-.28-1.131zm-.83 2.596c-1.79-.022-1.861.046-1.861-.049 0-1.918-.022-1.86.049-1.86h1.812c.087 0 .033.12.05.444 0 0 .045 1.465-.05 1.465zm9.301-7.474h-1.249c-.767 0-1.39.624-1.39 1.39v5.626c0 .837.68 1.519 1.518 1.519h.994a1.52 1.52 0 0 0 1.518-1.52v-5.624c0-.767-.623-1.391-1.391-1.391zm-.127 7.474h-.994a.459.459 0 0 1-.458-.458v-5.625a.33.33 0 0 1 .33-.331h1.249a.33.33 0 0 1 .33.33v5.626a.458.458 0 0 1-.457.458zM14.186 15.4c-.646-.237-1.113-.409-1.113-1.008 0-.546.362-.822 1.077-.822.759 0 .963.334 1.23.334.292 0 .453-.31.453-.523 0-.441-.72-.66-1.365-.718v-.398a.503.503 0 0 0-1.005 0v.461c-.88.21-1.364.818-1.364 1.719 0 1.234.908 1.575 1.638 1.85.715.268 1.28.48 1.28 1.297 0 .674-.374 1.016-1.113 1.016-1.08 0-1.09-.73-1.503-.73-.255 0-.46.286-.46.522 0 .418.622.967 1.522 1.11v.385a.503.503 0 0 0 1.005 0v-.396c.969-.182 1.523-.893 1.523-1.96 0-1.476-1-1.843-1.805-2.139zm14.509 14.617a1.104 1.104 0 0 0-.769-.31h-1.811c-.33 0-.628.144-.831.373-.384.433-.254.903-.28 1.131v1.416c0 .612.498 1.11 1.11 1.11h1.812a1.11 1.11 0 0 0 1.11-1.11v-1.812c0-.313-.131-.596-.34-.798zm-.769 2.66c-1.79-.023-1.861.045-1.861-.05v-1.812a.05.05 0 0 1 .05-.049h1.811a.05.05 0 0 1 .05.05c-.022 1.793.044 1.86-.05 1.86zm-.001-12.211h-1.811a1.11 1.11 0 0 0-1.11 1.11v1.81c0 .613.498 1.11 1.11 1.11h1.811a1.111 1.111 0 0 0 1.11-1.11v-1.81c0-.615-.5-1.11-1.11-1.11zm0 2.97h-1.811a.05.05 0 0 1-.05-.05v-1.81c0-.096.066-.029 1.861-.05a.05.05 0 0 1 .05.05v1.81a.05.05 0 0 1-.05.05zm.405 1.842a1.093 1.093 0 0 0-.404-.076h-1.812a1.11 1.11 0 0 0-1.11 1.11v1.81c0 .613.498 1.11 1.11 1.11h1.811a1.11 1.11 0 0 0 1.11-1.11v-1.81c0-.47-.293-.872-.706-1.034zm-.356 2.845a.05.05 0 0 1-.049.05h-1.811a.05.05 0 0 1-.05-.05V26.31a.05.05 0 0 1 .05-.049h1.811a.05.05 0 0 1 .05.05v1.81zM24.866 7.245h-1.332a.53.53 0 0 0 0 1.06h1.332a.53.53 0 1 0 0-1.06zm-3.453 0h-9.401a.53.53 0 0 0 0 1.06h9.401a.53.53 0 1 0 0-1.06zm-7.716 2.632h-1.685a.53.53 0 0 0 0 1.06h1.685a.53.53 0 0 0 0-1.06zm11.169 0h-9.049a.53.53 0 0 0 0 1.06h9.049a.53.53 0 0 0 0-1.06zM6.986 29.894c0-.133.05-.171.095-.197.143-.079.47-.102.769.052.08.04.17.087.287.087.523 0 .936-.971-.313-1.186v-.034a.538.538 0 0 0-1.074 0v.102c-.524.19-.82.622-.82 1.208 0 .904.657 1.15 1.137 1.331.457.172.616.247.616.558 0 .195-.053.375-.433.375-.554 0-.488-.438-.903-.438-.293 0-.512.29-.512.55 0 .366.382.715.915.856v.04a.538.538 0 0 0 1.074 0v-.054c.577-.185.915-.681.915-1.36 0-1.611-1.753-1.37-1.753-1.89z"/></g><defs><clipPath id="clip0_985_3395"><path fill="#fff" d="M0 0h36v36H0z" transform="translate(.5)"/></clipPath></defs></svg>