<svg xmlns="http://www.w3.org/2000/svg" width="37" height="36" fill="none" viewBox="0 0 37 36"><g fill="#007200" clip-path="url(#clip0_985_3478)"><path d="M18.078 12.656a.703.703 0 1 0 0-1.407.703.703 0 0 0 0 1.407zm0 2.813a.703.703 0 1 0 0-1.407.703.703 0 0 0 0 1.407z"/><path d="M36.294 7.237L29.263.206A.71.71 0 0 0 28.766 0h-17.72a2.111 2.111 0 0 0-2.107 2.11v2.14a7.797 7.797 0 0 0-.704-.032C3.97 4.219.5 7.689.5 11.953c0 4.265 3.47 7.735 7.734 7.735.235 0 .47-.012.704-.033v14.236c0 1.163.946 2.109 2.109 2.109H34.39a2.111 2.111 0 0 0 2.109-2.11V7.735a.707.707 0 0 0-.206-.497zm-6.825-4.836l4.63 4.63h-4.63v-4.63zM8.937 5.664c2.97.328 5.26 2.695 5.585 5.586H8.937V5.664zm-7.03 6.29a6.337 6.337 0 0 1 5.624-6.29v6.29c0 .387.315.701.703.701h6.288c-.353 3.146-3.014 5.626-6.288 5.626a6.335 6.335 0 0 1-6.328-6.328zm32.484 22.64H11.047a.704.704 0 0 1-.703-.703V19.395a7.758 7.758 0 0 0 5.625-7.442c0-3.47-2.334-6.51-5.625-7.441V2.109c0-.387.315-.703.703-.703h17.015v6.328c0 .389.315.704.704.704h6.328V33.89a.704.704 0 0 1-.703.703z"/><path d="M18.5 5.625h7.453a.703.703 0 1 0 0-1.406H18.5a.703.703 0 1 0 0 1.406zm0 2.813h7.453a.703.703 0 1 0 0-1.407H18.5a.703.703 0 1 0 0 1.407zM8.234 15.469a3.52 3.52 0 0 1-3.515-3.516.703.703 0 1 0-1.407 0 4.928 4.928 0 0 0 4.922 4.922.703.703 0 1 0 0-1.406zm23.133 3.234a2.112 2.112 0 0 0-1.749 3.288l-4.882 5.24a2.106 2.106 0 0 0-1.458.087l-2.2-2.727a2.112 2.112 0 0 0-1.875-3.076 2.112 2.112 0 0 0-1.893 3.041l-2.564 2.78a2.112 2.112 0 0 0-2.996 1.915c0 1.162.946 2.108 2.11 2.108a2.112 2.112 0 0 0 1.892-3.04l2.564-2.78a2.103 2.103 0 0 0 1.734.018l2.2 2.726a2.112 2.112 0 0 0 1.875 3.076 2.112 2.112 0 0 0 1.749-3.287l4.883-5.24a2.112 2.112 0 0 0 2.72-2.019c0-1.164-.947-2.11-2.11-2.11zM13.86 29.953a.704.704 0 1 1 .002-1.408.704.704 0 0 1-.002 1.408zm4.641-6.328a.704.704 0 1 1 1.408.001.704.704 0 0 1-1.408-.001zm5.625 6.328a.704.704 0 1 1 .001-1.407.704.704 0 0 1-.001 1.407zm7.242-8.437a.704.704 0 1 1 .002-1.408.704.704 0 0 1-.002 1.408zm-11.18-9.563c0 .389.314.703.703.703h10.687a.703.703 0 1 0 0-1.406H20.891a.703.703 0 0 0-.703.703zm11.39 2.11H20.891a.703.703 0 0 0 0 1.406h10.687a.703.703 0 1 0 0-1.406z"/></g><defs><clipPath id="clip0_985_3478"><path fill="#fff" d="M0 0h36v36H0z" transform="translate(.5)"/></clipPath></defs></svg>