<svg xmlns="http://www.w3.org/2000/svg" width="36" height="36" fill="none" viewBox="0 0 36 36"><g fill="#007200" clip-path="url(#clip0_964_2763)"><path d="M2.076 12.171l.324.091v10.32a1.8 1.8 0 0 0 1.314 1.729l2.886.81V33.6A2.4 2.4 0 0 0 9 36h18a2.4 2.4 0 0 0 2.4-2.4v-8.48l2.884-.807a1.8 1.8 0 0 0 1.315-1.73v-10.32l.324-.09a2.842 2.842 0 0 0 1.67-4.2l-2.08-3.48-.005.003a.596.596 0 0 0-.345-.273L18.649.091a2.383 2.383 0 0 0-1.3 0L2.837 4.225a.596.596 0 0 0-.345.273l-.006-.004-2.079 3.48a2.842 2.842 0 0 0 1.67 4.2v-.003zm1.96 10.99a.6.6 0 0 1-.436-.577V12.6l8.994 2.52a2.841 2.841 0 0 0 3.201-1.275l1.605-2.677V18H9a2.4 2.4 0 0 0-2.4 2.4v3.475l-2.563-.715zM28.2 33.6a1.2 1.2 0 0 1-1.2 1.2H9a1.2 1.2 0 0 1-1.2-1.2V20.4A1.2 1.2 0 0 1 9 19.2h18a1.2 1.2 0 0 1 1.2 1.2v13.2zm4.2-11.016a.6.6 0 0 1-.437.574l-2.563.717V20.4A2.4 2.4 0 0 0 27 18h-8.4v-6.832l1.605 2.675a2.847 2.847 0 0 0 3.201 1.277L32.4 12.6v9.984zm2.28-12.54a1.628 1.628 0 0 1-1.08.972l-10.517 2.946a1.645 1.645 0 0 1-1.85-.736l-2.314-3.858 13.8-3.865 1.844 3.087c.265.439.309.977.117 1.452v.002zM17.677 1.245c.21-.06.434-.06.644 0l12.47 3.552L18 8.378 5.208 4.797l12.47-3.552zM1.436 8.59L3.28 5.503l13.8 3.865-2.315 3.858a1.644 1.644 0 0 1-1.85.736L2.4 11.016a1.641 1.641 0 0 1-.963-2.427h-.001z"/><path d="M25.8 32.4h-.6V27a1.2 1.2 0 0 0-1.2-1.2h-1.2a1.2 1.2 0 0 0-1.2 1.2v5.4h-1.2v-7.8a1.2 1.2 0 0 0-1.2-1.2H18a1.2 1.2 0 0 0-1.2 1.2v7.8h-1.2v-4.8a1.2 1.2 0 0 0-1.2-1.2h-1.2a1.2 1.2 0 0 0-1.2 1.2v4.8h-1.2V21.6a.6.6 0 1 0-1.2 0v10.8a1.2 1.2 0 0 0 1.2 1.2h15a.6.6 0 0 0 0-1.2zm-12.6 0v-4.8h1.2v4.8h-1.2zm4.8 0v-7.8h1.2v7.8H18zm4.8 0V27H24v5.4h-1.2z"/></g><defs><clipPath id="clip0_964_2763"><path fill="#fff" d="M0 0h36v36H0z"/></clipPath></defs></svg>