<svg xmlns="http://www.w3.org/2000/svg" width="37" height="36" fill="none" viewBox="0 0 37 36"><path fill="#007200" d="M31.606 1.828H9.848a.415.415 0 0 0-.189.05.354.354 0 0 0-.109.074L5.096 6.406a.416.416 0 0 0-.118.272c0 .009-.005.017-.005.026V33.75a.422.422 0 0 0 .422.422h26.21a.422.422 0 0 0 .423-.422V2.25a.422.422 0 0 0-.422-.422zM7.986 4.71l1.477-1.478v3.05h-3.05L7.986 4.71zm23.198 28.618H5.817V7.126h4.068a.422.422 0 0 0 .422-.422V2.672h20.877v30.656z"/><path fill="#007200" d="M15.172 16.782a.355.355 0 0 1 .165.324 3.145 3.145 0 0 0 .21 1.392 1.391 1.391 0 0 0-.908.801 1.39 1.39 0 0 0 1.283 1.923h.22v.45a2.225 2.225 0 0 0 2.223 2.223h.268a2.226 2.226 0 0 0 2.223-2.223v-.45h.22a1.388 1.388 0 0 0 .364-2.729c.17-.427.247-.886.226-1.345a.385.385 0 0 1 .158-.363 6.036 6.036 0 1 0-6.652-.003zm4.84 4.89a1.38 1.38 0 0 1-1.379 1.38h-.268a1.38 1.38 0 0 1-1.379-1.38v-.45h3.027v.45zm1.608-1.841a.55.55 0 0 1-.543.548h-5.155a.547.547 0 0 1-.384-.934.55.55 0 0 1 .384-.163h5.155a.546.546 0 0 1 .543.548zm-8.279-8.666a5.192 5.192 0 1 1 8.021 4.914 1.237 1.237 0 0 0-.538 1.146c.02.422-.075.842-.277 1.213h-1.625v-6.23h1.323v-.844h-3.491v.844h1.324v6.23h-1.643a2.298 2.298 0 0 1-.264-1.076c0-.07.004-.139.007-.197a1.187 1.187 0 0 0-.543-1.088 5.176 5.176 0 0 1-2.294-4.912zM8.906 25.398h19.189v.844H8.906v-.844zm0 2.348h19.189v.844H8.906v-.844zm0 2.348h19.189v.843H8.906v-.843z"/></svg>