<svg xmlns="http://www.w3.org/2000/svg" width="36" height="36" fill="none" viewBox="0 0 36 36"><g fill="#007200" clip-path="url(#clip0_964_3125)"><path d="M29.665 17.4v13.2h-3.6a.6.6 0 0 0-.6.6v3.6h-22.2V1.2h26.4V9h1.2V.6a.6.6 0 0 0-.6-.6h-27.6a.6.6 0 0 0-.6.6v34.8a.6.6 0 0 0 .6.6h23.4a.603.603 0 0 0 .424-.176l4.2-4.2c.05-.05.09-.11.12-.176.008-.018.013-.036.02-.055a.606.606 0 0 0 .03-.156c0-.013.008-.024.008-.037V17.4h-1.203zm-3 16.552V31.8h2.151l-2.151 2.152z"/><path d="M33.389 10.076a1.916 1.916 0 0 0-2.649 0l-10.5 10.5a.6.6 0 0 0-.175.424v1.8a.6.6 0 0 0 .6.6h1.8a.6.6 0 0 0 .424-.176l10.5-10.5c.73-.731.73-1.916 0-2.648zM22.216 22.2h-.951v-.951l7.5-7.5.951.951-7.5 7.5zm8.348-8.348l-.951-.952.652-.651.951.951-.652.652zm1.976-1.976l-.475.476-.952-.952.476-.476a.689.689 0 0 1 .951 0 .675.675 0 0 1 0 .952zM7.464 7.8a2.4 2.4 0 1 0 0 4.8 2.4 2.4 0 0 0 0-4.8zm0 3.6a1.2 1.2 0 1 1 0-2.4 1.2 1.2 0 0 1 0 2.4zm11.225-8.576l-.849-.848-1.376 1.376-1.375-1.376-.849.848L15.616 4.2 14.24 5.576l.849.848 1.375-1.375 1.376 1.375.849-.848L17.313 4.2l1.376-1.376zM24.265 7.2a2.4 2.4 0 1 0 0 4.8 2.4 2.4 0 0 0 0-4.8zm0 3.6a1.2 1.2 0 1 1 0-2.4 1.2 1.2 0 0 1 0 2.4zM9.264 24.6a2.4 2.4 0 1 0 0 4.8 2.4 2.4 0 0 0 0-4.8zm0 3.6a1.2 1.2 0 1 1 0-2.4 1.2 1.2 0 0 1 0 2.4zm2.825-11.576l-.848-.849-1.376 1.376-1.376-1.376-.848.849L9.016 18l-1.375 1.375.848.849 1.376-1.376 1.376 1.376.848-.849L10.713 18l1.376-1.376zm14.999 8.4l-.848-.848-1.376 1.376-1.376-1.376-.848.848 1.375 1.376-1.375 1.376.848.848 1.376-1.376 1.376 1.376.848-.848-1.376-1.376 1.376-1.376z"/><path d="M13.012 12h1.02v-1.2h-2.4a.6.6 0 0 0-.6.6v2.4h1.2v-.84a8.736 8.736 0 0 1-.444 11.237l.889.807A9.943 9.943 0 0 0 13.012 12zm3.453 15.6a2.4 2.4 0 1 0 0 4.8 2.4 2.4 0 0 0 0-4.8zm0 3.6a1.2 1.2 0 1 1 0-2.4 1.2 1.2 0 0 1 0 2.4zm4.024-22.625l-1.8-1.8-.849.849.776.776h-7.551v1.2h7.551l-.776.775.849.849 1.8-1.8a.6.6 0 0 0 0-.849zM21.864 12h-2.4v1.2h.972a16.864 16.864 0 0 0-4.572 11.588V26.4h1.2v-1.612a15.677 15.677 0 0 1 4.2-10.719V15h1.2v-2.4a.6.6 0 0 0-.6-.6z"/></g><defs><clipPath id="clip0_964_3125"><path fill="#fff" d="M0 0h36v36H0z"/></clipPath></defs></svg>