<svg xmlns="http://www.w3.org/2000/svg" width="37" height="36" fill="none" viewBox="0 0 37 36"><g clip-path="url(#clip0_985_3448)"><path fill="#007200" d="M35.938 25.623h-1.013V8.234a2.345 2.345 0 0 0-2.343-2.342H4.418a2.345 2.345 0 0 0-2.343 2.342v17.389H1.062a.562.562 0 0 0-.562.562v1.898a2.028 2.028 0 0 0 2.025 2.025h31.95a2.028 2.028 0 0 0 2.025-2.025v-1.898a.563.563 0 0 0-.563-.562zM3.2 8.234a1.219 1.219 0 0 1 1.218-1.217h28.164A1.219 1.219 0 0 1 33.8 8.234v17.389H3.2V8.234zm12.1 18.514h6.4v.555h-6.4v-.556zm20.075 1.335a.902.902 0 0 1-.9.9H2.524a.901.901 0 0 1-.9-.9v-1.335h12.55v.783a.898.898 0 0 0 .896.897h6.858a.898.898 0 0 0 .897-.897v-.783h12.549v1.335zM15.622 8.36a.562.562 0 0 1 .563-.562h3.034a.562.562 0 1 1 0 1.125h-3.034a.562.562 0 0 1-.563-.563zm4.63 0a.562.562 0 1 1 1.126 0 .562.562 0 0 1-1.125 0zm8.264 2.085H8.484a.931.931 0 0 0-.93.93v9.887a.931.931 0 0 0 .93.93h20.032a.932.932 0 0 0 .93-.93v-9.887a.932.932 0 0 0-.93-.93zm-.195 10.622H8.679V11.57h19.642v9.497zm-2.278-3.278c0-.556-.378-.71-1.59-.916-.55-.093-1.12-.19-1.586-.439-.616-.328-.941-.876-.941-1.586 0-1.14 1.151-2.032 2.62-2.032 1.47 0 2.622.893 2.622 2.032a.563.563 0 0 1-1.125 0c0-.429-.615-.907-1.496-.907-.882 0-1.496.478-1.496.907 0 .557.378.71 1.59.916.55.094 1.119.19 1.585.439.616.328.942.876.942 1.586 0 1.14-1.152 2.033-2.621 2.033-1.47 0-2.621-.893-2.621-2.033a.563.563 0 1 1 1.125 0c0 .43.614.908 1.496.908.881 0 1.495-.479 1.495-.908zm-9.601 2.051h2.04a2.606 2.606 0 0 0 2.602-2.602V15.4a2.605 2.605 0 0 0-2.602-2.603h-2.04a.563.563 0 0 0-.563.563v5.918a.562.562 0 0 0 .563.562zm.562-5.918h1.478a1.479 1.479 0 0 1 1.477 1.478v1.838a1.478 1.478 0 0 1-1.477 1.477h-1.478v-4.793zm-6.792 5.887a.562.562 0 0 0 .715-.348l.341-.99a.557.557 0 0 0 .08.007h2.175a.557.557 0 0 0 .08-.007l.34.99a.563.563 0 1 0 1.064-.367l-2.04-5.917a.563.563 0 0 0-1.063 0l-2.04 5.917a.562.562 0 0 0 .348.715zm2.223-4.723l.782 2.267h-1.564l.782-2.267z"/></g><defs><clipPath id="clip0_985_3448"><path fill="#fff" d="M0 0h36v36H0z" transform="translate(.5)"/></clipPath></defs></svg>