<svg xmlns="http://www.w3.org/2000/svg" width="36" height="36" fill="none" viewBox="0 0 36 36"><path fill="#007200" d="M18 23.127a1.63 1.63 0 1 0-.002-3.262A1.63 1.63 0 0 0 18 23.127zm0-2.141a.511.511 0 1 1-.001 1.022.511.511 0 0 1 .001-1.022zm7.639-12.368a.602.602 0 0 0-1.029-.425 4.34 4.34 0 0 1-3.091 1.282 4.34 4.34 0 0 1-3.093-1.283 5.54 5.54 0 0 0-3.943-1.632c-1.49 0-2.891.58-3.944 1.632a.603.603 0 0 0-.177.426c0 4.212 3.427 7.638 7.639 7.638 4.211 0 7.638-3.426 7.638-7.638zm-14.067.255a4.34 4.34 0 0 1 2.91-1.109c1.169 0 2.267.455 3.092 1.28a5.538 5.538 0 0 0 3.945 1.635c.991 0 1.943-.257 2.779-.74-.611 2.916-3.203 5.113-6.297 5.113a6.441 6.441 0 0 1-6.429-6.18z"/><path fill="#007200" d="M29.001 31.726h-.847v-4.174c0-4.33-2.735-8.119-6.708-9.55a10.158 10.158 0 0 0 6.708-9.554V4.274h.847c.57 0 1.108-.221 1.512-.625.404-.405.626-.941.626-1.511 0-.572-.223-1.108-.626-1.511A2.125 2.125 0 0 0 29.001 0H7a2.12 2.12 0 0 0-1.513.627 2.12 2.12 0 0 0-.626 1.51c0 .57.222 1.107.626 1.512.404.404.941.625 1.512.625h.847v4.174a10.16 10.16 0 0 0 6.709 9.55 10.16 10.16 0 0 0-6.709 9.554v4.174H7a2.13 2.13 0 0 0-1.513.626c-.403.404-.625.94-.625 1.51 0 .572.222 1.109.626 1.512.404.404.94.626 1.512.626h22c.571 0 1.108-.222 1.512-.626.403-.403.626-.94.626-1.512 0-.57-.222-1.106-.626-1.511A2.126 2.126 0 0 0 29 31.726zM6.34 2.798a.928.928 0 0 1-.273-.66A.928.928 0 0 1 7 1.205h22c.25 0 .484.097.66.273.176.176.273.41.273.66A.929.929 0 0 1 29 3.07H7a.928.928 0 0 1-.66-.272zm2.71 24.754c0-4.3 3.064-7.998 7.28-8.792a.597.597 0 0 0 .025-.005h.007a.586.586 0 0 0 .462-.457.786.786 0 0 0 .018-.548.602.602 0 0 0-.48-.504l-.027-.005A8.949 8.949 0 0 1 9.05 8.448V4.274h17.9v4.174c0 4.302-3.065 8-7.308 8.797l-.005.001a.589.589 0 0 0-.47.478.785.785 0 0 0 .005.566c.052.23.24.422.486.468a8.948 8.948 0 0 1 7.291 8.794v4.174H24.33A6.368 6.368 0 0 0 18 25.969a6.367 6.367 0 0 0-6.33 5.757H9.05v-4.174zm14.07 4.174H12.88A5.162 5.162 0 0 1 18 27.174a5.162 5.162 0 0 1 5.12 4.552zm6.541 2.796a.927.927 0 0 1-.66.274H7a.93.93 0 0 1-.933-.934A.928.928 0 0 1 7 32.93h22.003a.928.928 0 0 1 .933.932c0 .25-.098.484-.274.66z"/></svg>