<svg xmlns="http://www.w3.org/2000/svg" width="760" height="80" fill="none" viewBox="0 0 760 80"><rect width="760" height="80" fill="#1AE4A1" rx="8"/><rect width="760" height="80" fill="url(#paint0_linear)" rx="8"/><g filter="url(#filter0_d)"><rect width="124" height="40" x="616" y="20" fill="url(#paint1_linear)" rx="3"/></g><path fill="#fff" d="M630.012 45v-9.953h3.411c1.126 0 1.982.226 2.57.677.588.45.882 1.123.882 2.016 0 .456-.123.866-.369 1.23-.246.365-.606.648-1.08.848.538.146.952.422 1.244.828.296.4.444.884.444 1.449 0 .934-.301 1.652-.902 2.153-.597.501-1.454.752-2.57.752h-3.63zm1.729-4.491v3.11h1.921c.542 0 .966-.134 1.272-.403.305-.27.458-.643.458-1.121 0-1.035-.529-1.563-1.586-1.586h-2.065zm0-1.272h1.696c.537 0 .957-.12 1.257-.362.306-.246.458-.592.458-1.04 0-.491-.141-.847-.423-1.066-.278-.218-.714-.328-1.306-.328h-1.682v2.796zm10.675-.116a4.115 4.115 0 00-.677-.055c-.761 0-1.274.292-1.538.875V45h-1.661v-7.397h1.586l.041.828c.401-.643.957-.964 1.668-.964.237 0 .433.032.587.096l-.006 1.558zM645.092 45h-1.661v-7.397h1.661V45zm-1.764-9.317c0-.256.08-.468.24-.636.164-.169.396-.253.697-.253.301 0 .533.084.697.253.164.169.246.38.246.636 0 .25-.082.46-.246.629-.164.164-.396.246-.697.246-.301 0-.533-.082-.697-.246a.878.878 0 01-.24-.63zm4.981 1.92l.047.855c.547-.66 1.265-.991 2.154-.991 1.54 0 2.324.882 2.351 2.645V45H651.2v-4.792c0-.47-.102-.816-.308-1.04-.2-.227-.53-.34-.991-.34-.67 0-1.169.302-1.497.908V45h-1.661v-7.397h1.566zm5.82 3.644c0-1.148.269-2.064.807-2.748.542-.688 1.26-1.032 2.153-1.032.844 0 1.507.294 1.99.882l.075-.745h1.497v7.17c0 .971-.303 1.737-.909 2.297-.602.56-1.415.841-2.441.841a3.924 3.924 0 01-1.592-.342c-.515-.223-.907-.517-1.176-.882l.786-.998c.51.607 1.139.91 1.887.91.551 0 .986-.15 1.305-.452.319-.296.479-.733.479-1.312v-.5c-.479.534-1.117.8-1.914.8-.866 0-1.575-.343-2.126-1.032-.547-.688-.821-1.64-.821-2.857zm1.655.144c0 .742.15 1.328.451 1.757.305.423.727.635 1.265.635.669 0 1.166-.287 1.49-.861v-3.254c-.315-.56-.807-.84-1.477-.84-.547 0-.973.216-1.278.649-.301.433-.451 1.07-.451 1.914zm11.867-5.585v1.797h1.306v1.231h-1.306v4.129c0 .282.055.487.164.615.114.123.315.185.602.185.191 0 .385-.023.581-.069v1.285a4.092 4.092 0 01-1.094.158c-1.276 0-1.914-.704-1.914-2.113v-4.19h-1.217v-1.23h1.217v-1.798h1.661zm4.078 2.604a2.6 2.6 0 012.058-.943c1.576 0 2.376.9 2.399 2.7V45h-1.661v-4.772c0-.51-.112-.87-.335-1.08-.219-.214-.542-.32-.971-.32-.665 0-1.162.295-1.49.888V45h-1.661V34.5h1.661v3.91zm9.259 6.727c-1.052 0-1.907-.33-2.563-.992-.652-.665-.978-1.549-.978-2.652v-.205c0-.738.142-1.397.424-1.975a3.27 3.27 0 011.203-1.36 3.175 3.175 0 011.723-.486c1.007 0 1.784.321 2.331.964.551.642.827 1.551.827 2.727v.67h-4.833c.05.61.253 1.094.609 1.45.36.355.811.532 1.353.532.761 0 1.381-.307 1.859-.922l.896.854a3.013 3.013 0 01-1.189 1.032 3.724 3.724 0 01-1.662.363zm-.198-6.337c-.456 0-.825.16-1.107.478-.278.32-.456.764-.533 1.333h3.165v-.123c-.037-.556-.185-.975-.445-1.258-.26-.287-.62-.43-1.08-.43zm5.883-1.197l.047.773c.52-.606 1.231-.91 2.133-.91.989 0 1.666.38 2.031 1.136.537-.757 1.294-1.135 2.269-1.135.816 0 1.422.225 1.818.677.401.45.607 1.116.616 1.996V45h-1.661v-4.813c0-.469-.103-.813-.308-1.032-.205-.218-.545-.328-1.019-.328-.378 0-.688.103-.929.308a1.59 1.59 0 00-.499.793l.007 5.072h-1.662v-4.867c-.022-.87-.467-1.306-1.333-1.306-.665 0-1.137.271-1.415.814V45h-1.661v-7.397h1.566zm15.463.807a2.599 2.599 0 012.057-.943c1.577 0 2.377.9 2.4 2.7V45h-1.661v-4.772c0-.51-.112-.87-.335-1.08-.219-.214-.543-.32-.971-.32-.665 0-1.162.295-1.49.888V45h-1.661V34.5h1.661v3.91zm9.259 6.727c-1.053 0-1.907-.33-2.563-.992-.652-.665-.978-1.549-.978-2.652v-.205c0-.738.141-1.397.424-1.975a3.27 3.27 0 011.203-1.36 3.172 3.172 0 011.723-.486c1.007 0 1.784.321 2.331.964.551.642.827 1.551.827 2.727v.67h-4.833c.05.61.253 1.094.608 1.45.36.355.812.532 1.354.532.761 0 1.381-.307 1.859-.922l.896.854a3.01 3.01 0 01-1.19 1.032 3.72 3.72 0 01-1.661.363zm-.198-6.337c-.456 0-.825.16-1.107.478-.278.32-.456.764-.534 1.333h3.165v-.123c-.036-.556-.184-.975-.444-1.258-.26-.287-.62-.43-1.08-.43zm8.193.321a4.106 4.106 0 00-.677-.055c-.761 0-1.274.292-1.538.875V45h-1.661v-7.397h1.586l.041.828c.401-.643.957-.964 1.668-.964.237 0 .433.032.588.096l-.007 1.558zm4.03 6.016c-1.053 0-1.907-.33-2.564-.992-.651-.665-.977-1.549-.977-2.652v-.205c0-.738.141-1.397.424-1.975a3.27 3.27 0 011.203-1.36 3.171 3.171 0 011.722-.486c1.008 0 1.785.321 2.332.964.551.642.827 1.551.827 2.727v.67h-4.833c.05.61.253 1.094.608 1.45.36.355.811.532 1.354.532.761 0 1.38-.307 1.859-.922l.895.854a3.007 3.007 0 01-1.189 1.032 3.72 3.72 0 01-1.661.363zm-.198-6.337c-.456 0-.825.16-1.108.478-.278.32-.456.764-.533 1.333h3.165v-.123c-.036-.556-.185-.975-.444-1.258-.26-.287-.62-.43-1.08-.43zM155.398 35h-3.515l-6.844-11.227V35h-3.516V17.937h3.516l6.856 11.25v-11.25h3.503V35zm8.444.234c-1.859 0-3.375-.57-4.547-1.71-1.164-1.141-1.746-2.66-1.746-4.56v-.327c0-1.274.246-2.41.738-3.41.493-1.008 1.188-1.782 2.086-2.32.907-.548 1.938-.821 3.094-.821 1.734 0 3.098.547 4.09 1.64 1 1.094 1.5 2.645 1.5 4.653v1.383h-8.074c.109.828.437 1.492.984 1.992.555.5 1.254.75 2.098.75 1.304 0 2.324-.473 3.058-1.418l1.664 1.863c-.507.719-1.195 1.282-2.062 1.688-.867.398-1.828.597-2.883.597zm-.387-10.406c-.672 0-1.218.227-1.64.68-.414.453-.68 1.101-.797 1.945h4.711v-.27c-.016-.75-.219-1.328-.61-1.734-.39-.414-.945-.62-1.664-.62zm13.131 10.406c-1.859 0-3.375-.57-4.546-1.71-1.165-1.141-1.747-2.66-1.747-4.56v-.327c0-1.274.247-2.41.739-3.41.492-1.008 1.187-1.782 2.086-2.32.906-.548 1.937-.821 3.093-.821 1.735 0 3.098.547 4.09 1.64 1 1.094 1.5 2.645 1.5 4.653v1.383h-8.074c.109.828.438 1.492.984 1.992.555.5 1.254.75 2.098.75 1.305 0 2.324-.473 3.059-1.418l1.664 1.863c-.508.719-1.196 1.282-2.063 1.688-.867.398-1.828.597-2.883.597zm-.386-10.406c-.672 0-1.219.227-1.641.68-.414.453-.68 1.101-.797 1.945h4.711v-.27c-.015-.75-.219-1.328-.609-1.734-.391-.414-.946-.62-1.664-.62zm6.767 3.738c0-1.976.442-3.55 1.325-4.722.89-1.172 2.105-1.758 3.644-1.758 1.235 0 2.254.46 3.059 1.383V17h3.398v18h-3.058l-.164-1.348c-.844 1.055-1.93 1.582-3.258 1.582-1.492 0-2.692-.586-3.598-1.757-.898-1.18-1.348-2.817-1.348-4.91zm3.387.247c0 1.187.207 2.097.621 2.73.414.633 1.016.95 1.805.95 1.047 0 1.785-.442 2.215-1.325v-5.004c-.422-.883-1.153-1.324-2.192-1.324-1.632 0-2.449 1.324-2.449 3.973zm19.337-6.493l.105 1.418c.899-1.101 2.113-1.652 3.645-1.652 1.632 0 2.754.645 3.363 1.934.891-1.29 2.16-1.934 3.809-1.934 1.375 0 2.398.402 3.07 1.207.672.797 1.008 2 1.008 3.61V35h-3.399v-8.086c0-.719-.14-1.242-.422-1.57-.281-.336-.777-.504-1.488-.504-1.016 0-1.719.484-2.109 1.453l.011 8.707h-3.386v-8.074c0-.735-.145-1.266-.434-1.594-.289-.328-.781-.492-1.476-.492-.961 0-1.657.398-2.086 1.195V35h-3.387V22.32h3.176zm16.846 6.223c0-1.258.242-2.379.726-3.363.484-.985 1.18-1.746 2.086-2.285.914-.54 1.973-.81 3.176-.81 1.711 0 3.105.524 4.183 1.571 1.086 1.047 1.692 2.469 1.817 4.266l.023.867c0 1.945-.543 3.508-1.629 4.688-1.086 1.171-2.543 1.757-4.371 1.757-1.828 0-3.289-.586-4.383-1.757-1.085-1.172-1.628-2.766-1.628-4.782v-.152zm3.386.246c0 1.203.227 2.125.68 2.766.453.633 1.102.949 1.945.949.821 0 1.461-.313 1.922-.938.461-.632.692-1.64.692-3.023 0-1.18-.231-2.094-.692-2.742-.461-.649-1.109-.973-1.945-.973-.828 0-1.469.324-1.922.973-.453.64-.68 1.637-.68 2.988zm17.596-3.293a9.2 9.2 0 00-1.219-.094c-1.281 0-2.121.434-2.519 1.301V35h-3.387V22.32h3.199l.094 1.512c.68-1.164 1.621-1.746 2.824-1.746.375 0 .727.05 1.055.152l-.047 3.258zm7.002 9.738c-1.859 0-3.375-.57-4.546-1.71-1.165-1.141-1.747-2.66-1.747-4.56v-.327c0-1.274.247-2.41.739-3.41.492-1.008 1.187-1.782 2.086-2.32.906-.548 1.937-.821 3.093-.821 1.735 0 3.098.547 4.09 1.64 1 1.094 1.5 2.645 1.5 4.653v1.383h-8.074c.109.828.438 1.492.984 1.992.555.5 1.254.75 2.098.75 1.305 0 2.324-.473 3.059-1.418l1.664 1.863c-.508.719-1.196 1.282-2.063 1.688-.867.398-1.828.597-2.883.597zm-.386-10.406c-.672 0-1.219.227-1.641.68-.414.453-.68 1.101-.797 1.945h4.711v-.27c-.015-.75-.219-1.328-.609-1.734-.391-.414-.946-.62-1.664-.62zm24.445 3.95c0 1.953-.445 3.519-1.335 4.699-.883 1.171-2.079 1.757-3.586 1.757-1.282 0-2.317-.445-3.106-1.336v5.977h-3.387V22.32h3.141l.117 1.242c.821-.984 1.891-1.476 3.211-1.476 1.563 0 2.778.578 3.645 1.734.867 1.157 1.3 2.75 1.3 4.782v.175zm-3.386-.247c0-1.18-.211-2.09-.633-2.73-.414-.64-1.02-.961-1.816-.961-1.063 0-1.793.406-2.192 1.219v5.191c.414.836 1.152 1.254 2.215 1.254 1.617 0 2.426-1.324 2.426-3.973zm4.729.012c0-1.258.242-2.379.726-3.363.484-.985 1.18-1.746 2.086-2.285.914-.54 1.973-.81 3.176-.81 1.711 0 3.105.524 4.183 1.571 1.086 1.047 1.692 2.469 1.817 4.266l.023.867c0 1.945-.543 3.508-1.629 4.688-1.086 1.171-2.543 1.757-4.371 1.757-1.828 0-3.289-.586-4.383-1.757-1.086-1.172-1.628-2.766-1.628-4.782v-.152zm3.386.246c0 1.203.227 2.125.68 2.766.453.633 1.101.949 1.945.949.821 0 1.461-.313 1.922-.938.461-.632.692-1.64.692-3.023 0-1.18-.231-2.094-.692-2.742-.461-.649-1.109-.973-1.945-.973-.828 0-1.469.324-1.922.973-.453.64-.68 1.637-.68 2.988zm21.885-.012c0 1.953-.445 3.52-1.336 4.7-.883 1.171-2.078 1.757-3.586 1.757-1.281 0-2.316-.445-3.105-1.336v5.977h-3.387V22.32h3.141l.117 1.242c.82-.984 1.891-1.476 3.211-1.476 1.562 0 2.777.578 3.644 1.734.868 1.157 1.301 2.75 1.301 4.782v.175zm-3.387-.246c0-1.18-.21-2.09-.632-2.73-.414-.64-1.02-.961-1.817-.961-1.062 0-1.793.406-2.191 1.219v5.191c.414.836 1.152 1.254 2.215 1.254 1.617 0 2.425-1.324 2.425-3.973zm12.85 5.18c-.836 1.016-1.992 1.523-3.468 1.523-1.36 0-2.399-.39-3.118-1.172-.711-.78-1.074-1.925-1.089-3.433V22.32h3.386v8.192c0 1.32.602 1.98 1.805 1.98 1.148 0 1.937-.398 2.367-1.195V22.32h3.399V35h-3.188l-.094-1.29zm17.01-4.934c0 1.953-.445 3.52-1.336 4.7-.882 1.171-2.078 1.757-3.586 1.757-1.281 0-2.316-.445-3.105-1.336v5.977h-3.387V22.32h3.141l.117 1.242c.82-.984 1.891-1.476 3.211-1.476 1.563 0 2.777.578 3.645 1.734.867 1.157 1.3 2.75 1.3 4.782v.175zm-3.386-.246c0-1.18-.211-2.09-.633-2.73-.414-.64-1.02-.961-1.817-.961-1.062 0-1.793.406-2.191 1.219v5.191c.414.836 1.152 1.254 2.215 1.254 1.617 0 2.426-1.324 2.426-3.973zm15.047-9.328v3.117h2.168v2.485h-2.168v6.328c0 .469.09.805.27 1.008.179.203.523.304 1.031.304.375 0 .707-.027.996-.082v2.567a6.975 6.975 0 01-2.051.304c-2.375 0-3.586-1.199-3.633-3.597v-6.832h-1.851V22.32h1.851v-3.117h3.387zm9.651 16.031c-1.86 0-3.375-.57-4.547-1.71-1.164-1.141-1.746-2.66-1.746-4.56v-.327c0-1.274.246-2.41.738-3.41.492-1.008 1.187-1.782 2.086-2.32.906-.548 1.937-.821 3.094-.821 1.734 0 3.097.547 4.089 1.64 1 1.094 1.5 2.645 1.5 4.653v1.383h-8.074c.11.828.438 1.492.985 1.992.554.5 1.253.75 2.097.75 1.305 0 2.324-.473 3.059-1.418l1.664 1.863c-.508.719-1.195 1.282-2.063 1.688-.867.398-1.828.597-2.882.597zm-.387-10.406c-.672 0-1.219.227-1.641.68-.414.453-.679 1.101-.797 1.945h4.711v-.27c-.015-.75-.218-1.328-.609-1.734-.391-.414-.945-.62-1.664-.62zm10.471-2.508l.105 1.418c.899-1.101 2.114-1.652 3.645-1.652 1.633 0 2.754.645 3.363 1.934.891-1.29 2.16-1.934 3.809-1.934 1.375 0 2.398.402 3.07 1.207.672.797 1.008 2 1.008 3.61V35h-3.399v-8.086c0-.719-.14-1.242-.421-1.57-.282-.336-.778-.504-1.489-.504-1.015 0-1.719.484-2.109 1.453l.012 8.707h-3.387v-8.074c0-.735-.145-1.266-.434-1.594-.289-.328-.781-.492-1.476-.492-.961 0-1.657.398-2.086 1.195V35h-3.387V22.32h3.176zm28.787 6.457c0 1.953-.445 3.52-1.336 4.7-.883 1.171-2.078 1.757-3.586 1.757-1.281 0-2.316-.445-3.105-1.336v5.977h-3.387V22.32h3.141l.117 1.242c.82-.984 1.891-1.476 3.211-1.476 1.562 0 2.777.578 3.644 1.734.868 1.157 1.301 2.75 1.301 4.782v.175zm-3.387-.246c0-1.18-.21-2.09-.632-2.73-.414-.64-1.02-.961-1.817-.961-1.062 0-1.793.406-2.191 1.219v5.191c.414.836 1.152 1.254 2.215 1.254 1.617 0 2.425-1.324 2.425-3.973zM393.294 35h-3.399V17h3.399v18zm9.908 0c-.156-.305-.269-.684-.34-1.137-.82.914-1.886 1.371-3.199 1.371-1.242 0-2.273-.359-3.094-1.078-.812-.718-1.218-1.625-1.218-2.718 0-1.344.496-2.375 1.488-3.094 1-.719 2.441-1.082 4.324-1.09h1.559v-.727c0-.586-.153-1.054-.457-1.406-.297-.351-.77-.527-1.418-.527-.571 0-1.02.136-1.348.41-.32.273-.48.648-.48 1.125h-3.387c0-.735.226-1.414.68-2.04.453-.624 1.093-1.112 1.921-1.464.829-.36 1.758-.54 2.79-.54 1.562 0 2.8.395 3.714 1.184.922.782 1.383 1.883 1.383 3.305v5.496c.008 1.203.176 2.114.504 2.73v.2h-3.422zm-2.801-2.355c.5 0 .961-.11 1.383-.329.422-.226.735-.527.938-.902v-2.18h-1.266c-1.695 0-2.598.586-2.707 1.758l-.012.2c0 .421.149.769.446 1.042.297.274.703.41 1.218.41zm12.135-13.442v3.117h2.168v2.485h-2.168v6.328c0 .469.09.805.27 1.008.18.203.523.304 1.031.304.375 0 .707-.027.996-.082v2.567a6.968 6.968 0 01-2.05.304c-2.375 0-3.586-1.199-3.633-3.597v-6.832h-1.852V22.32h1.852v-3.117h3.386zm9.651 16.031c-1.859 0-3.375-.57-4.547-1.71-1.164-1.141-1.746-2.66-1.746-4.56v-.327c0-1.274.246-2.41.738-3.41.493-1.008 1.188-1.782 2.086-2.32.907-.548 1.938-.821 3.094-.821 1.734 0 3.098.547 4.09 1.64 1 1.094 1.5 2.645 1.5 4.653v1.383h-8.074c.109.828.437 1.492.984 1.992.555.5 1.254.75 2.098.75 1.304 0 2.324-.473 3.058-1.418l1.664 1.863c-.507.719-1.195 1.282-2.062 1.688-.867.398-1.828.597-2.883.597zm-.387-10.406c-.672 0-1.218.227-1.64.68-.414.453-.68 1.101-.797 1.945h4.711v-.27c-.016-.75-.219-1.328-.61-1.734-.39-.414-.945-.62-1.664-.62zm14.163 6.668c0-.414-.207-.738-.621-.973-.407-.242-1.063-.457-1.969-.644-3.016-.633-4.524-1.914-4.524-3.844 0-1.125.465-2.062 1.395-2.812.937-.758 2.16-1.137 3.668-1.137 1.609 0 2.894.379 3.855 1.137.969.758 1.453 1.742 1.453 2.953h-3.386c0-.485-.157-.883-.469-1.195-.313-.32-.801-.481-1.465-.481-.57 0-1.012.129-1.324.387a1.22 1.22 0 00-.469.984c0 .375.176.68.528.914.359.227.96.426 1.804.598.844.164 1.555.351 2.133.562 1.789.657 2.684 1.793 2.684 3.41 0 1.157-.496 2.094-1.489 2.813-.992.71-2.273 1.066-3.843 1.066-1.063 0-2.008-.187-2.836-.562-.821-.383-1.465-.902-1.934-1.559-.469-.664-.703-1.379-.703-2.144h3.211c.031.601.254 1.062.668 1.383.414.32.969.48 1.664.48.648 0 1.137-.121 1.465-.363.336-.25.504-.575.504-.973zM447.869 35V24.805h-1.886V22.32h1.886v-1.078c0-1.422.407-2.523 1.219-3.305.82-.789 1.965-1.183 3.434-1.183.468 0 1.043.078 1.722.234l-.035 2.625a4.316 4.316 0 00-1.031-.105c-1.273 0-1.91.598-1.91 1.793v1.02h2.519v2.484h-2.519V35h-3.399zm6.909-6.457c0-1.258.242-2.379.726-3.363.485-.985 1.18-1.746 2.086-2.285.914-.54 1.973-.81 3.176-.81 1.711 0 3.106.524 4.184 1.571 1.086 1.047 1.691 2.469 1.816 4.266l.024.867c0 1.945-.543 3.508-1.629 4.688-1.086 1.171-2.543 1.757-4.371 1.757-1.829 0-3.29-.586-4.383-1.757-1.086-1.172-1.629-2.766-1.629-4.782v-.152zm3.387.246c0 1.203.226 2.125.679 2.766.453.633 1.102.949 1.946.949.82 0 1.46-.313 1.921-.938.461-.632.692-1.64.692-3.023 0-1.18-.231-2.094-.692-2.742-.461-.649-1.109-.973-1.945-.973-.828 0-1.469.324-1.922.973-.453.64-.679 1.637-.679 2.988zm17.595-3.293a9.187 9.187 0 00-1.218-.094c-1.282 0-2.121.434-2.52 1.301V35h-3.387V22.32h3.2l.093 1.512c.68-1.164 1.622-1.746 2.825-1.746.375 0 .726.05 1.054.152l-.047 3.258zm15.095 5.016c0-.64-.18-1.149-.539-1.524-.352-.383-.953-.734-1.805-1.054a22.26 22.26 0 01-2.203-.95 7.417 7.417 0 01-1.594-1.09 4.567 4.567 0 01-1.031-1.453c-.242-.554-.363-1.214-.363-1.98 0-1.32.421-2.402 1.265-3.246.844-.844 1.965-1.336 3.363-1.477V15.23h1.875v2.543c1.383.196 2.465.774 3.247 1.735.781.953 1.171 2.191 1.171 3.715h-3.386c0-.938-.196-1.637-.586-2.098-.383-.469-.899-.703-1.547-.703-.641 0-1.137.183-1.488.55-.352.36-.528.86-.528 1.5 0 .594.172 1.071.516 1.43.344.36.98.727 1.91 1.102.938.375 1.707.73 2.309 1.066a6.432 6.432 0 011.523 1.125c.414.414.731.89.949 1.43.219.531.328 1.152.328 1.863 0 1.328-.414 2.407-1.242 3.235-.828.828-1.969 1.316-3.422 1.465v2.331h-1.863V35.2c-1.601-.172-2.844-.738-3.726-1.699-.875-.969-1.313-2.254-1.313-3.855h3.387c0 .93.218 1.644.656 2.144.445.492 1.082.738 1.91.738.688 0 1.231-.18 1.629-.539.398-.367.598-.86.598-1.476zM504.525 35h-3.387V21.945l-4.043 1.254v-2.754l7.067-2.53h.363V35zm6.522 1.465h-2.52l6.281-18.528h2.52l-6.281 18.528zm19.084-7.688c0 1.953-.446 3.52-1.336 4.7-.883 1.171-2.078 1.757-3.586 1.757-1.281 0-2.316-.445-3.106-1.336v5.977h-3.386V22.32h3.14l.118 1.242c.82-.984 1.89-1.476 3.21-1.476 1.563 0 2.778.578 3.645 1.734.867 1.157 1.301 2.75 1.301 4.782v.175zm-3.387-.246c0-1.18-.211-2.09-.633-2.73-.414-.64-1.019-.961-1.816-.961-1.063 0-1.793.406-2.192 1.219v5.191c.415.836 1.153 1.254 2.215 1.254 1.617 0 2.426-1.324 2.426-3.973zm8.83 6.469h-3.398V22.32h3.398V35zm-3.597-15.96c0-.509.168-.927.504-1.255.343-.328.808-.492 1.394-.492.578 0 1.039.164 1.383.492.344.328.516.746.516 1.254 0 .516-.176.938-.528 1.266-.344.328-.801.492-1.371.492s-1.031-.164-1.383-.492c-.343-.328-.515-.75-.515-1.266zm11.994 16.194c-1.859 0-3.375-.57-4.547-1.71-1.164-1.141-1.746-2.66-1.746-4.56v-.327c0-1.274.246-2.41.738-3.41.493-1.008 1.188-1.782 2.086-2.32.907-.548 1.938-.821 3.094-.821 1.734 0 3.098.547 4.09 1.64 1 1.094 1.5 2.645 1.5 4.653v1.383h-8.074c.109.828.437 1.492.984 1.992.555.5 1.254.75 2.098.75 1.304 0 2.324-.473 3.058-1.418l1.664 1.863c-.507.719-1.195 1.282-2.062 1.688-.867.398-1.828.597-2.883.597zm-.387-10.406c-.671 0-1.218.227-1.64.68-.414.453-.68 1.101-.797 1.945h4.711v-.27c-.016-.75-.219-1.328-.61-1.734-.39-.414-.945-.62-1.664-.62zm12.569 7.676c.625 0 1.133-.172 1.523-.516.391-.343.594-.8.61-1.37h3.176a4.376 4.376 0 01-.704 2.366c-.46.711-1.093 1.266-1.898 1.664-.797.391-1.68.586-2.648.586-1.813 0-3.243-.574-4.289-1.722-1.047-1.157-1.571-2.75-1.571-4.782v-.222c0-1.953.52-3.512 1.559-4.676 1.039-1.164 2.465-1.746 4.277-1.746 1.586 0 2.856.453 3.809 1.36.961.898 1.449 2.097 1.465 3.597h-3.176c-.016-.656-.219-1.188-.61-1.594-.39-.414-.906-.62-1.546-.62-.79 0-1.387.288-1.793.866-.399.57-.598 1.5-.598 2.79v.35c0 1.306.199 2.243.598 2.813.398.57 1.003.856 1.816.856zm12.838 2.73c-1.859 0-3.375-.57-4.547-1.71-1.164-1.141-1.746-2.66-1.746-4.56v-.327c0-1.274.246-2.41.738-3.41.493-1.008 1.188-1.782 2.086-2.32.907-.548 1.938-.821 3.094-.821 1.734 0 3.098.547 4.09 1.64 1 1.094 1.5 2.645 1.5 4.653v1.383h-8.074c.109.828.437 1.492.984 1.992.555.5 1.254.75 2.098.75 1.304 0 2.324-.473 3.058-1.418l1.664 1.863c-.507.719-1.195 1.282-2.062 1.688-.867.398-1.828.597-2.883.597zm-.387-10.406c-.672 0-1.218.227-1.64.68-.414.453-.68 1.101-.797 1.945h4.711v-.27c-.016-.75-.219-1.328-.61-1.734-.39-.414-.945-.62-1.664-.62zm10.061 4.934c0-1.094.133-1.965.399-2.614.265-.648.75-1.285 1.453-1.91.711-.633 1.183-1.144 1.418-1.535a2.44 2.44 0 00.351-1.254c0-1.32-.609-1.98-1.828-1.98-.578 0-1.043.18-1.394.539-.344.351-.524.84-.539 1.465h-3.399c.016-1.492.496-2.66 1.442-3.504.953-.844 2.25-1.266 3.89-1.266 1.656 0 2.942.402 3.856 1.207.914.797 1.371 1.926 1.371 3.387 0 .664-.149 1.293-.446 1.887-.296.585-.816 1.238-1.558 1.957l-.949.902c-.594.57-.934 1.238-1.02 2.004l-.047.715h-3zm-.34 3.597c0-.523.176-.953.528-1.289.359-.343.816-.515 1.371-.515.554 0 1.008.172 1.359.515.36.336.539.766.539 1.29 0 .515-.176.94-.527 1.277-.344.336-.801.504-1.371.504-.571 0-1.031-.168-1.383-.504-.344-.336-.516-.762-.516-1.278zM151.326 56.415c-.409.586-.982 1.026-1.718 1.32-.731.287-1.583.431-2.557.431-.985 0-1.859-.23-2.623-.689-.763-.465-1.356-1.123-1.776-1.975-.415-.853-.628-1.84-.639-2.964v-1.054c0-1.82.423-3.232 1.27-4.233.852-1.002 2.047-1.503 3.586-1.503 1.261 0 2.277.324 3.046.971.769.642 1.24 1.555 1.411 2.74h-1.594c-.298-1.6-1.25-2.4-2.855-2.4-1.068 0-1.879.377-2.432 1.13-.548.746-.825 1.831-.83 3.253v.988c0 1.356.31 2.435.929 3.237.62.797 1.459 1.196 2.516 1.196.597 0 1.12-.067 1.568-.2a2.427 2.427 0 001.113-.672v-2.714h-2.798v-1.295h4.383v4.433zm6.151 1.751c-1.217 0-2.208-.398-2.972-1.195-.763-.803-1.145-1.873-1.145-3.213v-.282c0-.89.169-1.685.506-2.382.343-.703.819-1.25 1.428-1.644a3.59 3.59 0 011.992-.598c1.168 0 2.075.385 2.723 1.154.647.77.971 1.87.971 3.304v.64h-6.084c.022.885.279 1.601.771 2.15.499.541 1.129.813 1.893.813.542 0 1.002-.111 1.378-.332.376-.222.706-.515.988-.88l.938.73c-.753 1.157-1.882 1.735-3.387 1.735zm-.191-8.052c-.62 0-1.14.227-1.56.68-.421.45-.681 1.08-.781 1.894h4.499v-.117c-.044-.78-.254-1.383-.631-1.81-.376-.43-.885-.647-1.527-.647zm7.562-3.27v2.175h1.677v1.187h-1.677v5.57c0 .36.075.63.224.813.15.177.404.266.764.266.177 0 .421-.034.73-.1V58c-.404.11-.796.166-1.178.166-.687 0-1.204-.207-1.553-.622-.348-.416-.523-1.005-.523-1.769v-5.57h-1.635V49.02h1.635v-2.175h1.536zm9.139 2.175l.042.996c.658-.775 1.547-1.163 2.664-1.163 1.257 0 2.112.482 2.565 1.445.299-.432.686-.78 1.162-1.046.482-.266 1.049-.398 1.702-.398 1.97 0 2.972 1.043 3.005 3.129V58h-1.536v-5.927c0-.642-.146-1.12-.44-1.436-.293-.32-.785-.481-1.477-.481-.57 0-1.043.171-1.42.514-.376.338-.594.794-.655 1.37V58h-1.544v-5.885c0-1.306-.639-1.96-1.918-1.96-1.007 0-1.696.43-2.067 1.287V58h-1.535v-8.981h1.452zm13.057 4.407c0-.88.172-1.671.515-2.374.349-.703.83-1.245 1.444-1.627.62-.381 1.326-.572 2.117-.572 1.223 0 2.211.423 2.963 1.27.759.846 1.138 1.972 1.138 3.378v.108c0 .874-.169 1.66-.507 2.357a3.778 3.778 0 01-1.436 1.619c-.619.387-1.333.581-2.141.581-1.218 0-2.206-.423-2.964-1.27-.752-.847-1.129-1.967-1.129-3.362v-.108zm1.544.183c0 .996.23 1.796.689 2.399.465.603 1.085.905 1.86.905.78 0 1.4-.305 1.859-.913.459-.615.689-1.472.689-2.574 0-.985-.235-1.782-.706-2.39-.464-.615-1.084-.922-1.859-.922-.758 0-1.37.302-1.834.905-.465.603-.698 1.467-.698 2.59zm12.9-3.212a4.6 4.6 0 00-.756-.059c-1.007 0-1.69.43-2.05 1.287V58h-1.536v-8.981h1.495l.025 1.037c.503-.802 1.217-1.203 2.141-1.203.299 0 .526.038.681.116v1.428zm4.98 7.769c-1.217 0-2.208-.398-2.971-1.195-.764-.803-1.146-1.873-1.146-3.213v-.282c0-.89.169-1.685.506-2.382.344-.703.819-1.25 1.428-1.644a3.59 3.59 0 011.992-.598c1.168 0 2.076.385 2.723 1.154.647.77.971 1.87.971 3.304v.64h-6.084c.022.885.279 1.601.772 2.15.498.541 1.129.813 1.892.813.543 0 1.002-.111 1.378-.332.377-.222.706-.515.988-.88l.938.73c-.753 1.157-1.882 1.735-3.387 1.735zm-.191-8.052c-.619 0-1.14.227-1.56.68-.421.45-.681 1.08-.78 1.894h4.499v-.117c-.045-.78-.255-1.383-.631-1.81-.377-.43-.886-.647-1.528-.647zM221.518 58c-.089-.177-.161-.492-.216-.946-.714.741-1.566 1.112-2.557 1.112-.885 0-1.613-.249-2.183-.747-.564-.504-.847-1.14-.847-1.91 0-.934.354-1.66 1.063-2.174.714-.52 1.715-.78 3.005-.78h1.494v-.706c0-.537-.161-.963-.482-1.278-.321-.321-.794-.482-1.419-.482-.548 0-1.007.139-1.378.415-.371.277-.556.612-.556 1.005h-1.544c0-.449.158-.88.473-1.295.321-.42.753-.753 1.295-.996a4.384 4.384 0 011.801-.366c1.035 0 1.846.26 2.432.78.587.516.891 1.227.913 2.134V55.9c0 .824.106 1.48.316 1.967V58h-1.61zm-2.549-1.17a2.7 2.7 0 001.37-.374c.432-.249.744-.573.938-.971v-1.843h-1.204c-1.881 0-2.822.55-2.822 1.652 0 .481.16.858.481 1.129.321.271.734.407 1.237.407zm14.203-.947l1.726-6.864h1.536L233.819 58h-1.245l-2.183-6.807L228.266 58h-1.245l-2.606-8.981h1.527l1.768 6.723 2.092-6.723h1.237l2.133 6.864zm8.558 2.283c-1.217 0-2.208-.398-2.972-1.195-.763-.803-1.145-1.873-1.145-3.213v-.282c0-.89.169-1.685.506-2.382.343-.703.819-1.25 1.428-1.644a3.59 3.59 0 011.992-.598c1.168 0 2.075.385 2.723 1.154.647.77.971 1.87.971 3.304v.64h-6.085c.023.885.28 1.601.772 2.15.498.541 1.129.813 1.893.813.542 0 1.002-.111 1.378-.332.376-.222.705-.515.988-.88l.938.73c-.753 1.157-1.882 1.735-3.387 1.735zm-.191-8.052c-.62 0-1.14.227-1.56.68-.421.45-.681 1.08-.781 1.894h4.499v-.117c-.044-.78-.254-1.383-.631-1.81-.376-.43-.885-.647-1.527-.647zm10.708 5.504c0-.415-.158-.736-.473-.963-.31-.233-.855-.432-1.635-.598-.775-.166-1.392-.365-1.851-.598-.454-.232-.792-.509-1.013-.83-.216-.32-.324-.702-.324-1.145 0-.736.31-1.359.93-1.868.625-.509 1.422-.764 2.39-.764 1.019 0 1.843.263 2.474.79.637.525.955 1.197.955 2.016h-1.544c0-.42-.18-.783-.54-1.087-.354-.305-.802-.457-1.345-.457-.558 0-.996.122-1.311.366a1.15 1.15 0 00-.473.954c0 .37.146.65.44.839.293.188.822.367 1.585.539.769.172 1.392.376 1.868.614.476.238.827.526 1.054.864.233.332.349.738.349 1.22 0 .802-.321 1.447-.963 1.934-.642.481-1.475.722-2.499.722-.719 0-1.356-.127-1.909-.382-.553-.254-.988-.608-1.303-1.062a2.605 2.605 0 01-.465-1.486h1.536c.027.515.232.924.614 1.228.387.3.896.449 1.527.449.581 0 1.046-.117 1.395-.349.354-.238.531-.553.531-.946zm3.129-2.192c0-.88.172-1.671.515-2.374.349-.703.83-1.245 1.444-1.627.62-.381 1.326-.572 2.117-.572 1.223 0 2.211.423 2.964 1.27.758.846 1.137 1.972 1.137 3.378v.108c0 .874-.169 1.66-.507 2.357a3.778 3.778 0 01-1.436 1.619c-.619.387-1.333.581-2.141.581-1.218 0-2.205-.423-2.964-1.27-.752-.847-1.129-1.967-1.129-3.362v-.108zm1.544.183c0 .996.23 1.796.689 2.399.465.603 1.085.905 1.86.905.78 0 1.4-.305 1.859-.913.459-.615.689-1.472.689-2.574 0-.985-.235-1.782-.705-2.39-.465-.615-1.085-.922-1.86-.922-.758 0-1.369.302-1.834.905-.465.603-.698 1.467-.698 2.59zm10.003-4.59l.041.996c.659-.775 1.547-1.163 2.665-1.163 1.256 0 2.111.482 2.565 1.445.299-.432.686-.78 1.162-1.046.481-.266 1.049-.398 1.702-.398 1.97 0 2.971 1.043 3.004 3.129V58h-1.535v-5.927c0-.642-.147-1.12-.44-1.436-.293-.32-.786-.481-1.478-.481-.57 0-1.043.171-1.419.514-.376.338-.595.794-.656 1.37V58h-1.544v-5.885c0-1.306-.639-1.96-1.917-1.96-1.007 0-1.696.43-2.067 1.287V58h-1.536v-8.981h1.453zm17.191 9.147c-1.218 0-2.208-.398-2.972-1.195-.764-.803-1.145-1.873-1.145-3.213v-.282c0-.89.168-1.685.506-2.382.343-.703.819-1.25 1.428-1.644a3.59 3.59 0 011.992-.598c1.167 0 2.075.385 2.723 1.154.647.77.971 1.87.971 3.304v.64h-6.085c.022.885.28 1.601.772 2.15.498.541 1.129.813 1.893.813.542 0 1.001-.111 1.378-.332.376-.222.705-.515.987-.88l.938.73c-.752 1.157-1.881 1.735-3.386 1.735zm-.191-8.052c-.62 0-1.14.227-1.561.68-.42.45-.68 1.08-.78 1.894h4.499v-.117c-.044-.78-.255-1.383-.631-1.81-.376-.43-.885-.647-1.527-.647zm17.282 3.495c0 1.367-.313 2.468-.938 3.304-.625.835-1.472 1.253-2.54 1.253-1.09 0-1.948-.346-2.573-1.038v4.325h-1.536V49.02h1.403l.075.996c.625-.775 1.494-1.163 2.606-1.163 1.079 0 1.931.407 2.557 1.22.631.814.946 1.946.946 3.396v.14zm-1.536-.174c0-1.013-.215-1.813-.647-2.4-.432-.586-1.024-.88-1.776-.88-.93 0-1.627.413-2.092 1.238v4.291c.459.82 1.162 1.229 2.108 1.229.736 0 1.32-.29 1.752-.872.437-.587.655-1.455.655-2.606zm3.088-.009c0-.88.172-1.671.515-2.374.349-.703.83-1.245 1.444-1.627.62-.381 1.326-.572 2.117-.572 1.223 0 2.211.423 2.963 1.27.759.846 1.138 1.972 1.138 3.378v.108c0 .874-.169 1.66-.507 2.357a3.778 3.778 0 01-1.436 1.619c-.62.387-1.333.581-2.141.581-1.218 0-2.206-.423-2.964-1.27-.752-.847-1.129-1.967-1.129-3.362v-.108zm1.544.183c0 .996.23 1.796.689 2.399.465.603 1.085.905 1.86.905.78 0 1.4-.305 1.859-.913.459-.615.689-1.472.689-2.574 0-.985-.235-1.782-.706-2.39-.464-.615-1.084-.922-1.859-.922-.758 0-1.37.302-1.834.905-.465.603-.698 1.467-.698 2.59zm16.145 0c0 1.367-.312 2.468-.938 3.304-.625.835-1.472 1.253-2.54 1.253-1.09 0-1.948-.346-2.573-1.038v4.325h-1.536V49.02h1.403l.075.996c.625-.775 1.494-1.163 2.606-1.163 1.079 0 1.932.407 2.557 1.22.631.814.946 1.946.946 3.396v.14zm-1.535-.174c0-1.013-.216-1.813-.648-2.4-.431-.586-1.024-.88-1.776-.88-.93 0-1.627.413-2.092 1.238v4.291c.459.82 1.162 1.229 2.108 1.229.736 0 1.32-.29 1.752-.872.437-.587.656-1.455.656-2.606zm9.039 3.677c-.597.703-1.475 1.054-2.631 1.054-.958 0-1.688-.277-2.192-.83-.498-.559-.749-1.383-.755-2.474V49.02h1.536v5.802c0 1.361.553 2.042 1.66 2.042 1.173 0 1.953-.437 2.341-1.312V49.02h1.535V58h-1.461l-.033-.888zm11.422-3.503c0 1.367-.313 2.468-.938 3.304-.625.835-1.472 1.253-2.54 1.253-1.09 0-1.948-.346-2.573-1.038v4.325h-1.536V49.02h1.403l.075.996c.625-.775 1.494-1.163 2.606-1.163 1.079 0 1.931.407 2.557 1.22.631.814.946 1.946.946 3.396v.14zm-1.536-.174c0-1.013-.215-1.813-.647-2.4-.432-.586-1.024-.88-1.776-.88-.93 0-1.627.413-2.092 1.238v4.291c.459.82 1.162 1.229 2.108 1.229.736 0 1.32-.29 1.752-.872.437-.587.655-1.455.655-2.606zm9.795-6.591v2.175h1.677v1.187h-1.677v5.57c0 .36.075.63.224.813.15.177.404.266.764.266.177 0 .421-.034.731-.1V58c-.404.11-.797.166-1.179.166-.686 0-1.204-.207-1.552-.622-.349-.416-.523-1.005-.523-1.769v-5.57h-1.636V49.02h1.636v-2.175h1.535zm7.205 11.322c-1.217 0-2.208-.398-2.971-1.195-.764-.803-1.146-1.873-1.146-3.213v-.282c0-.89.169-1.685.507-2.382.343-.703.819-1.25 1.427-1.644a3.596 3.596 0 011.993-.598c1.167 0 2.075.385 2.722 1.154.648.77.971 1.87.971 3.304v.64h-6.084c.022.885.279 1.601.772 2.15.498.541 1.129.813 1.892.813.543 0 1.002-.111 1.378-.332.377-.222.706-.515.988-.88l.938.73c-.752 1.157-1.881 1.735-3.387 1.735zm-.19-8.052c-.62 0-1.14.227-1.561.68-.421.45-.681 1.08-.78 1.894h4.499v-.117c-.045-.78-.255-1.383-.631-1.81-.376-.43-.886-.647-1.527-.647zm6.922-1.095l.042.996c.658-.775 1.547-1.163 2.664-1.163 1.257 0 2.112.482 2.565 1.445.299-.432.687-.78 1.162-1.046.482-.266 1.049-.398 1.702-.398 1.97 0 2.972 1.043 3.005 3.129V58h-1.536v-5.927c0-.642-.146-1.12-.44-1.436-.293-.32-.785-.481-1.477-.481-.57 0-1.043.171-1.42.514-.376.338-.594.794-.655 1.37V58h-1.544v-5.885c0-1.306-.639-1.96-1.918-1.96-1.007 0-1.696.43-2.067 1.287V58h-1.535v-8.981h1.452zm21.051 4.59c0 1.367-.313 2.468-.938 3.304-.625.835-1.472 1.253-2.54 1.253-1.09 0-1.948-.346-2.573-1.038v4.325h-1.536V49.02h1.403l.075.996c.625-.775 1.494-1.163 2.606-1.163 1.079 0 1.932.407 2.557 1.22.631.814.946 1.946.946 3.396v.14zm-1.536-.174c0-1.013-.215-1.813-.647-2.4-.432-.586-1.024-.88-1.776-.88-.93 0-1.627.413-2.092 1.238v4.291c.459.82 1.162 1.229 2.108 1.229.736 0 1.32-.29 1.752-.872.437-.587.655-1.455.655-2.606zM386.247 58h-1.536V45.25h1.536V58zm8.01 0c-.089-.177-.161-.492-.216-.946-.714.741-1.566 1.112-2.557 1.112-.885 0-1.613-.249-2.183-.747-.564-.504-.846-1.14-.846-1.91 0-.934.354-1.66 1.062-2.174.714-.52 1.716-.78 3.005-.78h1.494v-.706c0-.537-.16-.963-.481-1.278-.321-.321-.794-.482-1.42-.482-.548 0-1.007.139-1.378.415-.37.277-.556.612-.556 1.005h-1.544c0-.449.158-.88.473-1.295.321-.42.753-.753 1.295-.996a4.389 4.389 0 011.802-.366c1.034 0 1.845.26 2.432.78.586.516.891 1.227.913 2.134V55.9c0 .824.105 1.48.315 1.967V58h-1.61zm-2.549-1.17a2.7 2.7 0 001.37-.374c.432-.249.744-.573.938-.971v-1.843h-1.204c-1.881 0-2.822.55-2.822 1.652 0 .481.161.858.482 1.129.321.271.733.407 1.236.407zm8.334-9.986v2.175h1.677v1.187h-1.677v5.57c0 .36.075.63.225.813.149.177.404.266.763.266.177 0 .421-.034.731-.1V58c-.404.11-.797.166-1.179.166-.686 0-1.204-.207-1.552-.622-.349-.416-.523-1.005-.523-1.769v-5.57h-1.635V49.02h1.635v-2.175h1.535zm7.206 11.322c-1.218 0-2.208-.398-2.972-1.195-.764-.803-1.146-1.873-1.146-3.213v-.282c0-.89.169-1.685.507-2.382.343-.703.819-1.25 1.427-1.644a3.596 3.596 0 011.993-.598c1.167 0 2.075.385 2.722 1.154.648.77.971 1.87.971 3.304v.64h-6.084c.022.885.279 1.601.772 2.15.498.541 1.129.813 1.893.813.542 0 1.001-.111 1.377-.332.377-.222.706-.515.988-.88l.938.73c-.752 1.157-1.881 1.735-3.386 1.735zm-.191-8.052c-.62 0-1.14.227-1.561.68-.42.45-.681 1.08-.78 1.894h4.499v-.117c-.044-.78-.255-1.383-.631-1.81-.376-.43-.885-.647-1.527-.647zm17.298 3.495c0 1.372-.315 2.476-.946 3.312-.631.83-1.477 1.245-2.54 1.245-1.134 0-2.011-.401-2.631-1.204L418.163 58h-1.411V45.25h1.536v4.756c.619-.769 1.474-1.154 2.565-1.154 1.09 0 1.945.413 2.564 1.237.626.825.938 1.954.938 3.387v.133zm-1.535-.174c0-1.046-.202-1.854-.606-2.424-.404-.57-.985-.855-1.743-.855-1.013 0-1.741.47-2.183 1.41v3.886c.47.94 1.203 1.41 2.199 1.41.736 0 1.309-.284 1.719-.854.409-.57.614-1.428.614-2.573zm9.023 3.677c-.598.703-1.475 1.054-2.632 1.054-.957 0-1.687-.277-2.191-.83-.498-.559-.75-1.383-.755-2.474V49.02h1.535v5.802c0 1.361.554 2.042 1.66 2.042 1.174 0 1.954-.437 2.341-1.312V49.02h1.536V58h-1.461l-.033-.888zm5.287-8.093l.05 1.129c.686-.864 1.583-1.296 2.69-1.296 1.898 0 2.855 1.071 2.872 3.213V58h-1.536v-5.943c-.005-.648-.155-1.127-.448-1.436-.288-.31-.739-.465-1.353-.465a2.22 2.22 0 00-1.312.398 2.715 2.715 0 00-.88 1.046V58h-1.535v-8.981h1.452zm7.554 4.416c0-1.378.327-2.485.98-3.32.653-.842 1.508-1.263 2.565-1.263 1.051 0 1.884.36 2.498 1.08V45.25h1.536V58h-1.411l-.075-.963c-.614.753-1.469 1.129-2.565 1.129-1.04 0-1.89-.426-2.548-1.278-.653-.852-.98-1.965-.98-3.337v-.116zm1.536.174c0 1.018.21 1.815.631 2.39.42.576 1.001.864 1.743.864.974 0 1.685-.437 2.133-1.312v-4.125c-.459-.847-1.165-1.27-2.117-1.27-.752 0-1.339.29-1.759.871-.421.581-.631 1.442-.631 2.582zM456.322 58h-1.536V45.25h1.536V58zm6.192.166c-1.217 0-2.208-.398-2.972-1.195-.763-.803-1.145-1.873-1.145-3.213v-.282c0-.89.169-1.685.506-2.382.343-.703.819-1.25 1.428-1.644a3.59 3.59 0 011.992-.598c1.168 0 2.075.385 2.723 1.154.647.77.971 1.87.971 3.304v.64h-6.084c.022.885.279 1.601.772 2.15.498.541 1.128.813 1.892.813.542 0 1.002-.111 1.378-.332.376-.222.706-.515.988-.88l.938.73c-.753 1.157-1.882 1.735-3.387 1.735zm-.191-8.052c-.62 0-1.14.227-1.56.68-.421.45-.681 1.08-.781 1.894h4.499v-.117c-.044-.78-.254-1.383-.63-1.81-.377-.43-.886-.647-1.528-.647zm10.708 5.504c0-.415-.157-.736-.473-.963-.31-.233-.855-.432-1.635-.598-.775-.166-1.392-.365-1.851-.598-.454-.232-.792-.509-1.013-.83-.216-.32-.324-.702-.324-1.145 0-.736.31-1.359.93-1.868.625-.509 1.422-.764 2.391-.764 1.018 0 1.842.263 2.473.79.637.525.955 1.197.955 2.016h-1.544c0-.42-.18-.783-.54-1.087-.354-.305-.802-.457-1.344-.457-.559 0-.996.122-1.312.366a1.15 1.15 0 00-.473.954c0 .37.147.65.44.839.293.188.822.367 1.585.539.77.172 1.392.376 1.868.614.476.238.827.526 1.054.864.233.332.349.738.349 1.22 0 .802-.321 1.447-.963 1.934-.642.481-1.475.722-2.499.722-.719 0-1.355-.127-1.909-.382-.553-.254-.988-.608-1.303-1.062a2.605 2.605 0 01-.465-1.486h1.536c.028.515.232.924.614 1.228.387.3.897.449 1.527.449.582 0 1.046-.117 1.395-.349.354-.238.531-.553.531-.946zM486.329 58c-.088-.177-.16-.492-.216-.946-.714.741-1.566 1.112-2.556 1.112-.886 0-1.613-.249-2.183-.747-.565-.504-.847-1.14-.847-1.91 0-.934.354-1.66 1.062-2.174.714-.52 1.716-.78 3.005-.78h1.494v-.706c0-.537-.16-.963-.481-1.278-.321-.321-.794-.482-1.419-.482-.548 0-1.008.139-1.378.415-.371.277-.557.612-.557 1.005h-1.544c0-.449.158-.88.474-1.295.321-.42.752-.753 1.295-.996a4.38 4.38 0 011.801-.366c1.035 0 1.845.26 2.432.78.587.516.891 1.227.913 2.134V55.9c0 .824.105 1.48.315 1.967V58h-1.61zm-2.548-1.17c.481 0 .938-.125 1.369-.374.432-.249.745-.573.938-.971v-1.843h-1.203c-1.882 0-2.823.55-2.823 1.652 0 .481.161.858.482 1.129.321.271.733.407 1.237.407zm8.334-9.986v2.175h1.677v1.187h-1.677v5.57c0 .36.074.63.224.813.149.177.404.266.764.266.177 0 .42-.034.73-.1V58c-.404.11-.797.166-1.179.166-.686 0-1.203-.207-1.552-.622-.349-.416-.523-1.005-.523-1.769v-5.57h-1.635V49.02h1.635v-2.175h1.536zm16.825 7.321c-.149 1.278-.622 2.266-1.419 2.963-.791.692-1.846 1.038-3.163 1.038-1.427 0-2.573-.512-3.436-1.536-.858-1.023-1.287-2.393-1.287-4.108v-1.163c0-1.123.199-2.11.598-2.963.404-.852.974-1.505 1.71-1.959.736-.46 1.588-.689 2.557-.689 1.283 0 2.313.36 3.087 1.08.775.713 1.226 1.704 1.353 2.97h-1.602c-.138-.962-.44-1.66-.904-2.091-.46-.432-1.104-.647-1.934-.647-1.019 0-1.818.376-2.399 1.128-.576.753-.864 1.824-.864 3.213v1.17c0 1.312.274 2.355.822 3.13.548.774 1.314 1.162 2.299 1.162.886 0 1.564-.2 2.034-.598.476-.404.791-1.104.946-2.1h1.602zm6.284-3.768a4.588 4.588 0 00-.755-.059c-1.007 0-1.691.43-2.051 1.287V58h-1.535v-8.981h1.494l.025 1.037c.503-.802 1.217-1.203 2.141-1.203.299 0 .526.038.681.116v1.428zm.847 3.03c0-.88.171-1.672.514-2.375.349-.703.831-1.245 1.445-1.627.62-.381 1.325-.572 2.116-.572 1.223 0 2.211.423 2.964 1.27.758.846 1.137 1.972 1.137 3.378v.108c0 .874-.169 1.66-.506 2.357a3.785 3.785 0 01-1.436 1.619c-.62.387-1.334.581-2.142.581-1.217 0-2.205-.423-2.963-1.27-.753-.847-1.129-1.967-1.129-3.362v-.108zm1.544.182c0 .996.229 1.796.689 2.399.465.603 1.084.905 1.859.905.78 0 1.4-.305 1.859-.913.46-.615.689-1.472.689-2.574 0-.985-.235-1.782-.705-2.39-.465-.615-1.085-.922-1.86-.922-.758 0-1.369.302-1.834.905-.465.603-.697 1.467-.697 2.59zm12.16 3.304a2.21 2.21 0 001.436-.498c.41-.332.637-.748.681-1.246h1.453c-.028.515-.205 1.005-.532 1.47a3.485 3.485 0 01-1.311 1.112 3.747 3.747 0 01-1.727.415c-1.223 0-2.197-.407-2.921-1.22-.72-.82-1.08-1.937-1.08-3.354v-.257c0-.874.161-1.652.482-2.333.321-.68.78-1.209 1.378-1.585.603-.376 1.314-.565 2.133-.565 1.007 0 1.843.302 2.507.905.67.604 1.026 1.387 1.071 2.35h-1.453c-.044-.582-.266-1.057-.664-1.428-.393-.377-.88-.565-1.461-.565-.78 0-1.386.283-1.818.847-.426.559-.639 1.37-.639 2.432v.29c0 1.035.213 1.832.639 2.391.426.56 1.035.839 1.826.839zm4.89-3.487c0-.88.171-1.671.514-2.374.349-.703.83-1.245 1.445-1.627.619-.381 1.325-.572 2.116-.572 1.223 0 2.211.423 2.964 1.27.758.846 1.137 1.972 1.137 3.378v.108c0 .874-.169 1.66-.507 2.357a3.778 3.778 0 01-1.436 1.619c-.619.387-1.333.581-2.141.581-1.218 0-2.205-.423-2.964-1.27-.752-.847-1.128-1.967-1.128-3.362v-.108zm1.543.183c0 .996.23 1.796.689 2.399.465.603 1.085.905 1.86.905.78 0 1.4-.305 1.859-.913.46-.615.689-1.472.689-2.574 0-.985-.235-1.782-.705-2.39-.465-.615-1.085-.922-1.86-.922-.758 0-1.369.302-1.834.905-.465.603-.698 1.467-.698 2.59zM545.007 58V45.914h3.951c1.312 0 2.297.271 2.956.813.664.543.996 1.345.996 2.408 0 .564-.161 1.065-.482 1.502-.321.432-.758.767-1.311 1.005.653.182 1.167.53 1.544 1.045.381.51.572 1.118.572 1.827 0 1.084-.351 1.936-1.054 2.556-.703.62-1.696.93-2.98.93h-4.192zm1.594-5.653v4.35h2.631c.742 0 1.326-.191 1.752-.573.432-.387.647-.919.647-1.594 0-1.455-.791-2.183-2.374-2.183h-2.656zm0-1.278h2.407c.698 0 1.254-.175 1.669-.523.42-.349.631-.822.631-1.42 0-.664-.194-1.145-.581-1.444-.388-.304-.977-.456-1.769-.456h-2.357v3.843zM557.027 58h-1.536V45.25h1.536V58zm2.058-4.574c0-.88.172-1.671.515-2.374.349-.703.83-1.245 1.444-1.627.62-.381 1.326-.572 2.117-.572 1.223 0 2.211.423 2.964 1.27.758.846 1.137 1.972 1.137 3.378v.108c0 .874-.169 1.66-.507 2.357a3.778 3.778 0 01-1.436 1.619c-.619.387-1.333.581-2.141.581-1.218 0-2.206-.423-2.964-1.27-.752-.847-1.129-1.967-1.129-3.362v-.108zm1.544.183c0 .996.23 1.796.689 2.399.465.603 1.085.905 1.86.905.78 0 1.4-.305 1.859-.913.459-.615.689-1.472.689-2.574 0-.985-.235-1.782-.705-2.39-.465-.615-1.085-.922-1.86-.922-.758 0-1.369.302-1.834.905-.465.603-.698 1.467-.698 2.59zm12.161 3.304a2.21 2.21 0 001.436-.498c.41-.332.636-.748.681-1.246h1.452c-.027.515-.204 1.005-.531 1.47a3.493 3.493 0 01-1.311 1.112 3.75 3.75 0 01-1.727.415c-1.223 0-2.197-.407-2.922-1.22-.719-.82-1.079-1.937-1.079-3.354v-.257c0-.874.161-1.652.482-2.333.32-.68.78-1.209 1.377-1.585.604-.376 1.315-.565 2.134-.565 1.007 0 1.843.302 2.507.905.669.604 1.026 1.387 1.07 2.35h-1.452c-.045-.582-.266-1.057-.664-1.428-.393-.377-.88-.565-1.461-.565-.781 0-1.386.283-1.818.847-.426.559-.639 1.37-.639 2.432v.29c0 1.035.213 1.832.639 2.391.426.56 1.035.839 1.826.839zm7.803-3.072l-.963 1.005V58h-1.536V45.25h1.536v7.711l.822-.987 2.797-2.955h1.868l-3.495 3.752L585.523 58h-1.801l-3.129-4.159zm7.827.747h-1.386l-.108-8.674h1.611l-.117 8.674zm-1.552 2.64c0-.249.075-.456.224-.623.155-.171.382-.257.681-.257.299 0 .526.086.681.258a.876.876 0 01.232.622c0 .25-.077.457-.232.623-.155.16-.382.24-.681.24-.299 0-.526-.08-.681-.24a.898.898 0 01-.224-.623z"/><g fill="#34D7A1" filter="url(#filter1_i)"><path d="M40.72 24.74c1.343 0 2.43-1.06 2.43-2.37 0-1.308-1.087-2.369-2.43-2.369h-.006C35.349 20.006 31 24.248 31 29.479c0 5.235 4.352 9.478 9.72 9.478 1.343 0 2.43-1.061 2.43-2.37 0-1.308-1.087-2.369-2.43-2.369h-.002c-2.683-.001-4.858-2.122-4.858-4.738 0-2.617 2.176-4.74 4.86-4.74zM88.647 24.875h.002c1.342 0 2.43-1.06 2.43-2.369 0-1.309-1.088-2.37-2.43-2.37-5.369 0-9.72 4.244-9.72 9.478 0 5.232 4.348 9.473 9.713 9.477h.007c1.342 0 2.43-1.06 2.43-2.37 0-1.308-1.088-2.369-2.43-2.369-2.684 0-4.86-2.121-4.86-4.738 0-2.617 2.175-4.738 4.858-4.739zM54.255 20c-5.369 0-9.72 4.243-9.72 9.477v7.108c0 1.309 1.087 2.37 2.43 2.37 1.342 0 2.43-1.061 2.43-2.37v-7.108c0-2.617 2.176-4.738 4.86-4.738 1.342 0 2.43-1.061 2.43-2.37 0-1.308-1.088-2.369-2.43-2.369zM67.794 20.003c-5.368 0-9.72 4.243-9.72 9.477 0 5.2 4.296 9.42 9.616 9.474 1.342 0 2.43-1.06 2.43-2.37 0-1.308-1.088-2.368-2.43-2.368-2.636-.055-4.756-2.154-4.756-4.736 0-2.617 2.176-4.739 4.86-4.739 2.685 0 4.86 2.122 4.86 4.739a4.635 4.635 0 01-.983 2.852c-.405.424-.655.99-.655 1.615 0 1.309 1.088 2.37 2.43 2.37.764 0 1.445-.345 1.89-.883l.002.018a9.287 9.287 0 002.177-5.972c0-5.234-4.352-9.477-9.72-9.477zM102.188 20.138c-5.368 0-9.72 4.243-9.72 9.477 0 5.2 4.295 9.42 9.616 9.475 1.342 0 2.43-1.061 2.43-2.37 0-1.308-1.088-2.369-2.43-2.369h-.002c-2.635-.055-4.754-2.154-4.754-4.736 0-2.617 2.176-4.738 4.86-4.738 2.685 0 4.861 2.121 4.861 4.738a4.635 4.635 0 01-.984 2.853c-.405.423-.655.99-.655 1.615 0 1.308 1.088 2.37 2.43 2.37a2.45 2.45 0 001.891-.883l.001.017a9.286 9.286 0 002.177-5.972c0-5.234-4.352-9.477-9.721-9.477z"/></g><g fill="#fff" filter="url(#filter2_i)"><path d="M61.3 41.692a.69.69 0 00-.7-.677.69.69 0 00-.7.677V59.32a.69.69 0 00.7.678.69.69 0 00.7-.678V41.69zM50.73 46.438a7.07 7.07 0 00-5.602 2.712v-7.565a.69.69 0 00-.7-.677.69.69 0 00-.7.677v11.633c0 3.745 3.135 6.781 7.003 6.781 3.867 0 7.003-3.036 7.003-6.78 0-3.745-3.136-6.781-7.003-6.781zm0 12.205c-3.093 0-5.602-2.429-5.602-5.425 0-2.995 2.509-5.424 5.603-5.424s5.602 2.429 5.602 5.425c0 2.995-2.508 5.424-5.602 5.424zM70.246 46.438c-3.868 0-7.003 3.036-7.003 6.78 0 3.745 3.135 6.78 7.003 6.78 3.868 0 7.003-3.035 7.003-6.78 0-3.744-3.135-6.78-7.003-6.78zm0 12.205c-3.094 0-5.602-2.429-5.602-5.425 0-2.995 2.508-5.424 5.602-5.424 3.094 0 5.603 2.429 5.603 5.424 0 2.996-2.509 5.425-5.603 5.425zM86.213 58.643c-3.094 0-5.602-2.429-5.602-5.425 0-2.995 2.508-5.424 5.602-5.424a.69.69 0 00.7-.678.69.69 0 00-.7-.678c-3.867 0-7.003 3.036-7.003 6.78 0 3.745 3.136 6.78 7.003 6.78a.69.69 0 00.7-.677.69.69 0 00-.7-.678zM99.981 58.956l-4.61-6.974 4.516-4.372a.664.664 0 00-.001-.959.716.716 0 00-.99 0l-7.436 7.2V41.69a.69.69 0 00-.7-.676.69.69 0 00-.7.677V59.32a.69.69 0 00.7.678.69.69 0 00.7-.678v-3.553l2.897-2.804 4.445 6.724a.714.714 0 00.966.204.665.665 0 00.213-.936z"/></g><defs><filter id="filter0_d" width="144" height="60" x="606" y="14" color-interpolation-filters="sRGB" filterUnits="userSpaceOnUse"><feFlood flood-opacity="0" result="BackgroundImageFix"/><feColorMatrix in="SourceAlpha" values="0 0 0 0 0 0 0 0 0 0 0 0 0 0 0 0 0 0 127 0"/><feOffset dy="4"/><feGaussianBlur stdDeviation="5"/><feColorMatrix values="0 0 0 0 0.568627 0 0 0 0 0.145098 0 0 0 0 0.94902 0 0 0 0.5 0"/><feBlend in2="BackgroundImageFix" result="effect1_dropShadow"/><feBlend in="SourceGraphic" in2="effect1_dropShadow" result="shape"/></filter><filter id="filter1_i" width="80.909" height="19.091" x="31" y="20" color-interpolation-filters="sRGB" filterUnits="userSpaceOnUse"><feFlood flood-opacity="0" result="BackgroundImageFix"/><feBlend in="SourceGraphic" in2="BackgroundImageFix" result="shape"/><feColorMatrix in="SourceAlpha" result="hardAlpha" values="0 0 0 0 0 0 0 0 0 0 0 0 0 0 0 0 0 0 127 0"/><feOffset/><feGaussianBlur stdDeviation="4"/><feComposite in2="hardAlpha" k2="-1" k3="1" operator="arithmetic"/><feColorMatrix values="0 0 0 0 1 0 0 0 0 1 0 0 0 0 1 0 0 0 0.8 0"/><feBlend in2="shape" mode="overlay" result="effect1_innerShadow"/></filter><filter id="filter2_i" width="56.364" height="19.091" x="43.727" y="40.908" color-interpolation-filters="sRGB" filterUnits="userSpaceOnUse"><feFlood flood-opacity="0" result="BackgroundImageFix"/><feBlend in="SourceGraphic" in2="BackgroundImageFix" result="shape"/><feColorMatrix in="SourceAlpha" result="hardAlpha" values="0 0 0 0 0 0 0 0 0 0 0 0 0 0 0 0 0 0 127 0"/><feOffset/><feGaussianBlur stdDeviation="4"/><feComposite in2="hardAlpha" k2="-1" k3="1" operator="arithmetic"/><feColorMatrix values="0 0 0 0 1 0 0 0 0 1 0 0 0 0 1 0 0 0 0.8 0"/><feBlend in2="shape" mode="overlay" result="effect1_innerShadow"/></filter><linearGradient id="paint0_linear" x1="0" x2="760" y1="0" y2="0" gradientUnits="userSpaceOnUse"><stop stop-color="#617BE5"/><stop offset=".937" stop-color="#07FFF0" stop-opacity=".28"/></linearGradient><linearGradient id="paint1_linear" x1="615.964" x2="740.018" y1="47.227" y2="47.2" gradientUnits="userSpaceOnUse"><stop stop-color="#C920FF"/><stop offset="1" stop-color="#8627EE"/></linearGradient></defs></svg>